<svg width="18" height="18" viewBox="0 0 18 18" fill="none" xmlns="http://www.w3.org/2000/svg">
<path d="M7.49998 14.25C7.32474 14.2504 7.15491 14.1893 7.01998 14.0775C6.8666 13.9504 6.77012 13.7674 6.75183 13.569C6.73354 13.3706 6.79494 13.1731 6.92248 13.02L10.2825 9.00002L7.04248 4.97252C6.91665 4.81757 6.85778 4.61886 6.87889 4.42038C6.90001 4.2219 6.99937 4.04002 7.15498 3.91502C7.31185 3.77699 7.5192 3.71066 7.72706 3.73202C7.93492 3.75337 8.12445 3.86048 8.24998 4.02752L11.8725 8.52752C12.1 8.80427 12.1 9.20327 11.8725 9.48002L8.12248 13.98C7.96988 14.1641 7.73866 14.2644 7.49998 14.25Z" fill="#5F97A0"/>
</svg>
