<svg width="16" height="16" viewBox="0 0 16 16" fill="none" xmlns="http://www.w3.org/2000/svg">
<path d="M7.99997 10.6667C7.84421 10.667 7.69325 10.6127 7.57331 10.5133L3.57331 7.18C3.2898 6.94435 3.251 6.5235 3.48664 6.24C3.72228 5.95649 4.14314 5.91769 4.42664 6.15333L7.99997 9.14L11.5733 6.26C11.711 6.14815 11.8877 6.09582 12.0641 6.11459C12.2405 6.13335 12.4022 6.22168 12.5133 6.36C12.6367 6.49857 12.6968 6.68231 12.6791 6.86703C12.6614 7.05176 12.5675 7.22074 12.42 7.33333L8.41997 10.5533C8.29659 10.637 8.14871 10.6769 7.99997 10.6667Z" fill="#67ADB9"/>
</svg>
