<svg width="16" height="16" viewBox="0 0 16 16" fill="none" xmlns="http://www.w3.org/2000/svg">
<path fill-rule="evenodd" clip-rule="evenodd" d="M4.29612 2.45686C5.39245 1.72432 6.68138 1.33333 7.99992 1.33333C8.8754 1.33333 9.74231 1.50577 10.5511 1.8408C11.36 2.17583 12.0949 2.66689 12.714 3.28595C13.333 3.90501 13.8241 4.63993 14.1591 5.44877C14.4942 6.25761 14.6666 7.12452 14.6666 7.99999C14.6666 9.31854 14.2756 10.6075 13.5431 11.7038C12.8105 12.8001 11.7693 13.6546 10.5511 14.1592C9.33297 14.6638 7.99253 14.7958 6.69932 14.5386C5.40611 14.2813 4.21823 13.6464 3.28588 12.714C2.35353 11.7817 1.71859 10.5938 1.46135 9.3006C1.20412 8.00739 1.33614 6.66695 1.84072 5.44877C2.34531 4.2306 3.19979 3.18941 4.29612 2.45686ZM5.03688 12.4345C5.91394 13.0205 6.94509 13.3333 7.99992 13.3333C9.41441 13.3333 10.771 12.7714 11.7712 11.7712C12.7714 10.771 13.3333 9.41448 13.3333 7.99999C13.3333 6.94516 13.0205 5.91402 12.4344 5.03695C11.8484 4.15989 11.0154 3.47631 10.0409 3.07264C9.06636 2.66897 7.99401 2.56335 6.95944 2.76914C5.92487 2.97493 4.97457 3.48288 4.22869 4.22876C3.48281 4.97464 2.97485 5.92495 2.76907 6.95951C2.56328 7.99408 2.6689 9.06643 3.07256 10.041C3.47623 11.0155 4.15982 11.8485 5.03688 12.4345ZM8.66658 7.33333H10.6666C10.8434 7.33333 11.013 7.40357 11.138 7.52859C11.263 7.65361 11.3333 7.82318 11.3333 7.99999C11.3333 8.17681 11.263 8.34637 11.138 8.4714C11.013 8.59642 10.8434 8.66666 10.6666 8.66666H7.99992C7.82311 8.66666 7.65354 8.59642 7.52851 8.4714C7.40349 8.34637 7.33325 8.17681 7.33325 7.99999V5.33333C7.33325 5.15652 7.40349 4.98695 7.52851 4.86192C7.65354 4.7369 7.82311 4.66666 7.99992 4.66666C8.17673 4.66666 8.3463 4.7369 8.47132 4.86192C8.59635 4.98695 8.66658 5.15652 8.66658 5.33333V7.33333Z" fill="#BCBCBC"/>
</svg>
