<svg width="32" height="32" viewBox="0 0 32 32" fill="none" xmlns="http://www.w3.org/2000/svg">
<g clip-path="url(#clip0_203_11233)">
<path d="M18.4794 26.98L18.4717 26.9766L18.473 26.977L18.4794 26.98Z" fill="#67ADB9"/>
<path fill-rule="evenodd" clip-rule="evenodd" d="M8.23747 8.14895C7.9053 9.36338 7.95554 10.6121 8.18008 11.8356C8.17949 11.9634 8.20269 12.0877 8.25211 12.2001C8.36412 12.7305 8.50525 13.2549 8.65833 13.7685C8.73811 14.0368 8.82042 14.3042 8.90534 14.5707L8.91136 14.5937C8.96841 14.8116 9.02924 15.044 9.1285 15.2508C10.2958 18.7067 11.92 21.9879 14.1835 24.8619C13.9777 24.9651 13.8304 25.1306 13.8328 25.4096C13.8349 25.6513 13.9485 25.8263 14.113 25.9602C14.0307 25.9913 13.955 26.0319 13.8921 26.0868C13.6979 26.2567 13.6493 26.5211 13.7275 26.7612C13.8006 26.9804 13.9764 27.126 14.1731 27.2321C13.8558 27.3448 13.6169 27.5908 13.706 27.9752C13.8036 28.3965 14.197 28.5487 14.5512 28.6857L14.6043 28.7064C15.0441 28.8763 15.4946 29.0112 15.9559 29.1137C16.7653 29.2972 17.7797 29.5076 18.5539 29.0948C18.9128 28.9033 19.2149 28.4797 18.9613 28.0832C18.9007 27.9876 18.8222 27.9254 18.7353 27.8783C18.7413 27.8231 18.735 27.7656 18.7147 27.7127C18.8718 27.627 19.0124 27.5127 19.1043 27.3547C19.2392 27.1227 19.2149 26.8314 19.0395 26.6263C19.0049 26.586 18.9653 26.5517 18.9226 26.5218C19.032 26.4264 19.1198 26.3093 19.1663 26.1677C19.223 25.9977 19.196 25.79 19.0908 25.6443C19.0344 25.5668 18.9666 25.5043 18.8887 25.4537C18.902 25.3406 18.8639 25.218 18.7595 25.143C18.7773 25.1233 18.7935 25.0998 18.8075 25.0724C20.5395 21.6758 22.196 18.2199 23.5989 14.675C23.9037 13.9061 24.1978 13.1183 24.3704 12.3063C24.5431 11.4942 24.5053 10.7712 24.3866 9.99156C24.1034 8.15974 23.267 6.38457 21.9856 5.03836C19.285 2.20295 14.8957 1.99792 11.6232 3.95384C10.0423 4.89807 8.73117 6.3468 8.23747 8.14895ZM11.9065 20.2649L11.9446 20.3369C11.8841 20.1261 11.8374 19.9102 11.8055 19.69C11.7421 19.7031 11.6807 19.7081 11.6214 19.7059C11.7139 19.8932 11.8089 20.0796 11.9065 20.2649ZM14.834 24.6951C14.2936 24.0276 13.7839 23.3356 13.308 22.6212C13.67 22.9846 14.0817 23.3007 14.5282 23.5589C14.339 24.036 14.7258 24.6801 15.2734 24.6353C15.3664 24.6277 15.4584 24.6218 15.5495 24.6176C15.3894 24.628 15.2298 24.6438 15.0711 24.665C15.0373 24.6695 15.0021 24.6738 14.9656 24.6784L14.9647 24.6785C14.9226 24.6837 14.8785 24.6891 14.834 24.6951ZM17.3462 24.7224C17.5497 24.6831 17.7316 24.5727 17.8485 24.3929C18.1012 24.4354 18.3909 24.3685 18.5675 24.1795C18.4698 24.3733 18.3718 24.5667 18.2734 24.7594C18.2407 24.8233 18.2314 24.8858 18.2391 24.9433C17.9469 24.8512 17.6484 24.7774 17.3462 24.7224ZM23.2293 13.9196C22.6044 15.6249 21.8578 17.2934 21.0912 18.9421C21.4287 18.1671 21.7664 17.3921 22.1043 16.6174C22.1622 16.4842 22.1941 16.3432 22.1952 16.2059C22.6002 15.319 22.9719 14.4167 23.3102 13.5014C23.3639 13.3566 23.3699 13.2211 23.3409 13.0998C23.7497 11.9457 23.8584 10.7109 23.6691 9.51089C23.8258 10.1865 23.9281 10.9067 23.8633 11.5995C23.7904 12.3926 23.5044 13.1777 23.2293 13.9196ZM21.2325 5.16011C21.8206 5.7097 22.3151 6.35011 22.7126 7.04736C22.563 6.9546 22.3841 6.92749 22.2094 6.95231C21.9851 6.29861 21.6578 5.69039 21.2325 5.16011ZM10.8409 5.27307C12.0334 4.24661 13.5362 3.58698 15.0907 3.36085C15.0467 3.4148 15.0102 3.47587 14.9829 3.54421C14.5063 3.72691 14.0378 3.93046 13.5798 4.15524C12.5797 4.48226 11.6972 5.05217 10.9521 5.77847C10.431 6.17425 9.93035 6.59583 9.45955 7.05093C9.40337 7.10527 9.34704 7.16035 9.29127 7.21625C9.6667 6.48952 10.1905 5.83271 10.8409 5.27307ZM15.3689 22.2304C15.2762 22.1778 15.1853 22.1216 15.0966 22.0619C15.0954 22.0358 15.093 22.0096 15.0896 21.9834L15.4891 22.0403C15.4491 22.1038 15.409 22.1672 15.3689 22.2304ZM16.9173 22.7271C17.4768 21.8243 18.013 20.9004 18.4774 19.9481C18.4755 20.0259 18.4851 20.1039 18.5052 20.1793C18.3293 20.7094 18.1389 21.235 17.9341 21.7552C17.7161 22.1013 17.5348 22.4703 17.3946 22.8551C17.286 22.7879 17.1535 22.7438 16.9973 22.7334L16.9892 22.7328V22.7307L16.9684 22.7313C16.9514 22.7301 16.9343 22.7287 16.9173 22.7271ZM18.8448 13.7296C18.7913 13.7585 18.7416 13.7937 18.696 13.8347C18.7511 13.6027 18.8038 13.3702 18.8542 13.1372C18.8519 13.3347 18.8488 13.5322 18.8448 13.7296ZM12.7608 14.4202C12.7388 14.3304 12.716 14.2408 12.6923 14.1514C12.7758 13.2799 12.9754 12.4291 13.331 11.6345C13.4404 11.3897 13.5625 11.151 13.6967 10.9202C13.1567 12.0095 12.8455 13.2071 12.7608 14.4202ZM16.3338 16.2646C16.3704 16.0428 16.416 15.8237 16.4705 15.6077C16.4309 15.9032 16.3935 16.199 16.3583 16.495L16.3338 16.2646ZM18.098 6.65436C18.1538 6.62748 18.2102 6.60584 18.2667 6.58975C18.0821 6.46054 17.8879 6.34179 17.6849 6.23361C17.645 6.27592 17.6046 6.31759 17.5636 6.35862C17.749 6.41706 17.8934 6.54689 17.9831 6.71093C18.0213 6.69182 18.0596 6.67297 18.098 6.65436ZM12.7924 8.53775C11.9271 9.73959 11.2701 11.083 10.8693 12.507C10.8419 12.3354 10.8243 12.163 10.8167 11.991C10.8936 11.5603 11.0126 11.1372 11.1862 10.7281C11.4344 10.1453 11.7932 9.59768 12.2114 9.12556C12.3864 8.92809 12.588 8.72598 12.7924 8.53775ZM21.583 12.7719C21.6283 12.176 21.657 11.5785 21.669 10.98C21.6891 11.2884 21.6907 11.5989 21.6781 11.907C21.6727 12.0392 21.6619 12.1741 21.6484 12.3063C21.643 12.3629 21.6376 12.4169 21.6295 12.4736C21.6263 12.5004 21.6262 12.5046 21.627 12.5008L21.6214 12.5383C21.6097 12.6164 21.5969 12.6943 21.583 12.7719ZM14.7784 25.3342C14.7557 25.3424 14.7321 25.3475 14.7083 25.349C14.6535 25.361 14.599 25.374 14.545 25.388C14.5371 25.39 14.5279 25.3918 14.5181 25.3938C14.4962 25.3981 14.4715 25.403 14.4518 25.4115C14.4916 25.4723 14.5214 25.5044 14.5908 25.5445C14.7328 25.6247 14.8943 25.6815 15.0504 25.7364C15.0782 25.7462 15.1058 25.7559 15.1331 25.7657C15.1438 25.7696 15.154 25.7738 15.1638 25.7784C16.2458 25.6715 17.3427 25.8118 18.3681 26.1832C18.3912 26.1535 18.4193 26.1278 18.4514 26.1083C18.4683 26.0982 18.484 26.0881 18.4994 26.0774C18.5204 26.0591 18.54 26.0396 18.5584 26.0194C18.564 26.0108 18.5693 26.0021 18.5742 25.9931L18.5768 25.9849L18.5724 25.9809C18.5508 25.9671 18.5281 25.9548 18.505 25.9435C18.4575 25.9244 18.4093 25.9066 18.3612 25.8888C18.1726 25.8189 17.9844 25.7493 17.839 25.6039C17.795 25.5599 17.7681 25.5067 17.7569 25.4508C17.1494 25.2908 16.5203 25.2113 15.8939 25.2208C15.525 25.2274 15.1452 25.2597 14.7784 25.3342ZM17.9029 27.3116L17.9467 27.3075L17.9604 27.3062C17.962 27.3062 17.9696 27.3054 17.9778 27.3046C17.9968 27.3028 18.0196 27.3005 17.982 27.3062C18.009 27.3035 18.036 27.2981 18.0629 27.2927C18.1142 27.2819 18.1655 27.2684 18.214 27.2549C18.2311 27.2515 18.2472 27.2459 18.2635 27.2402L18.2788 27.2349C18.2832 27.2335 18.2877 27.232 18.2923 27.2306C18.2983 27.2286 18.3044 27.2255 18.3105 27.2223C18.3184 27.2182 18.3263 27.2141 18.3341 27.2125L18.3399 27.2096C18.3751 27.1923 18.4109 27.1745 18.4433 27.1551C18.4527 27.1497 18.4615 27.1437 18.4702 27.1376C18.479 27.1315 18.4878 27.1254 18.4973 27.12L18.4991 27.1189C18.5165 27.104 18.5336 27.0889 18.5485 27.0715C18.5511 27.0689 18.5536 27.0659 18.5562 27.0627L18.5599 27.0557C18.5641 27.0478 18.5687 27.039 18.5733 27.0315L18.5715 27.0297C18.5668 27.0263 18.562 27.0229 18.5566 27.0202C18.5316 27.0052 18.5066 26.9925 18.4794 26.98L18.4973 26.9878C18.4973 26.9862 18.4837 26.9807 18.4717 26.9766L18.4705 26.9762C18.4629 26.9736 18.4562 26.9717 18.4541 26.9717C18.3921 26.9501 18.3327 26.9285 18.2707 26.9042C18.1185 26.8449 17.9737 26.7782 17.8552 26.6663C17.1084 26.4377 16.3267 26.3279 15.5432 26.3673C15.2977 26.3781 15.0495 26.4051 14.8067 26.4483C14.6988 26.4672 14.5908 26.4887 14.4829 26.513C14.4546 26.5184 14.4263 26.5258 14.3979 26.5333C14.3708 26.5404 14.3436 26.5475 14.3165 26.5528C14.3663 26.6778 14.5469 26.7433 14.685 26.7933C14.7113 26.8029 14.7361 26.8118 14.7581 26.8206C14.9688 26.9012 15.182 26.9743 15.3977 27.0423C15.5163 27.0349 15.635 27.0303 15.7536 27.0283C16.4797 27.0159 17.2058 27.1124 17.9029 27.3116ZM17.6058 27.878C16.987 27.714 16.3487 27.6362 15.7023 27.6515C15.2707 27.6596 14.8148 27.692 14.3939 27.808C14.3615 27.8123 14.3309 27.8218 14.302 27.8337C14.3058 27.8359 14.3076 27.8425 14.3076 27.8538C14.3341 27.9191 14.4191 27.9605 14.483 27.9917L14.5045 28.0022C14.6786 28.0892 14.8664 28.1534 15.0489 28.2157L15.0953 28.2315C15.8966 28.5067 16.8031 28.7468 17.6556 28.7037C17.8552 28.6929 18.0602 28.6551 18.2383 28.5634L18.2462 28.5593C18.3013 28.5304 18.3669 28.4961 18.4056 28.4447C18.4277 28.4157 18.4337 28.4083 18.4365 28.4087C18.3962 28.3534 18.2758 28.3189 18.1823 28.2921C18.1464 28.2818 18.1145 28.2727 18.0926 28.2639C17.9442 28.2019 17.8147 28.1344 17.696 28.0238C17.6467 27.9785 17.618 27.9286 17.6058 27.878ZM18.5668 27.0192L18.562 27.0121L18.562 27.014L18.5636 27.0166L18.5668 27.0192ZM14.4449 25.3922C14.4466 25.3925 14.4487 25.3964 14.4464 25.4031C14.4421 25.3954 14.4433 25.392 14.4449 25.3922ZM18.446 25.9168C18.46 25.9228 18.4739 25.9289 18.4878 25.9353L18.446 25.9168ZM18.5855 25.9932L18.5971 26.0193C18.5942 26.0105 18.5905 26.0021 18.5863 25.994L18.5855 25.9932ZM18.5971 25.9465C18.5952 25.9509 18.5933 25.9553 18.5913 25.9596L18.5971 25.9465ZM18.5863 25.9357C18.586 25.9396 18.5855 25.9434 18.585 25.9472L18.5837 25.9556L18.5863 25.9357ZM18.5593 25.9546C18.5638 25.9598 18.5681 25.9653 18.5722 25.971L18.5593 25.9546Z" fill="#67ADB9"/>
<path d="M16.0315 24.1308C15.5459 22.5472 15.1089 20.9474 14.7258 19.3368C14.4587 18.2145 14.2186 17.0814 14.0459 15.9402C13.9137 15.0608 13.7788 14.1165 13.9056 13.2289C13.9272 13.0806 13.9569 12.9322 14.0081 12.7946C14.0351 12.7164 14.108 12.5923 14.1457 12.5518C14.1997 12.4978 14.1403 12.5437 14.2213 12.4924C14.4317 12.3629 14.688 12.2874 14.9281 12.2388C15.241 12.1768 15.5756 12.1687 15.8912 12.2253C16.045 12.2523 16.215 12.2766 16.3579 12.3387C16.7114 12.4897 16.884 13.0212 16.9892 13.3611C17.2239 14.1246 17.1997 14.9528 16.938 15.7082C16.8112 16.0724 16.6223 16.4205 16.3822 16.7199C16.3013 16.8197 16.0666 17.1462 15.9182 17.1246C15.7374 17.0949 15.6673 16.6902 15.6268 16.5473C15.4218 15.8269 15.4299 15.0581 15.6106 14.335C15.7914 13.612 16.1394 12.9133 16.6385 12.3521C16.857 12.1066 17.0998 11.88 17.3696 11.6912C17.6124 11.5212 18.2221 11.068 18.5324 11.2352C18.7293 11.3405 18.7968 11.702 18.8561 11.8935C18.9371 12.1579 19.0018 12.4277 19.0504 12.7029C19.1502 13.2613 19.1718 13.8333 19.1475 14.3998C19.0989 15.5491 18.8399 16.6687 18.5216 17.7694C17.9443 19.7631 17.4236 21.7729 16.8139 23.7585C16.6979 24.1389 17.2941 24.3035 17.4101 23.9231C18.0306 21.897 18.5648 19.844 19.1529 17.8071C19.7491 15.7352 20.17 13.2829 19.2716 11.2299C18.8238 10.2074 17.7527 10.6714 17.0567 11.157C16.3606 11.6426 15.8076 12.2982 15.4326 13.0509C15.0576 13.8036 14.8472 14.648 14.858 15.4924C14.8633 15.9025 14.92 16.3206 15.0333 16.7145C15.1385 17.0895 15.2815 17.5859 15.697 17.7154C16.5441 17.9825 17.232 16.6687 17.4748 16.0509C17.8013 15.2226 17.8633 14.2892 17.6529 13.4259C17.5531 13.0104 17.3831 12.5869 17.143 12.228C16.9029 11.8692 16.5954 11.7424 16.2042 11.6615C15.5189 11.5185 14.8256 11.5536 14.1781 11.8315C13.3337 12.193 13.2501 13.0833 13.2501 13.9088C13.2501 15.1147 13.4632 16.326 13.6952 17.505C14.1241 19.7064 14.7069 21.8809 15.3544 24.0283C15.3813 24.1173 15.4083 24.2091 15.4353 24.2981C15.5513 24.6785 16.1502 24.5166 16.0315 24.1335V24.1308Z" fill="white"/>
</g>
<defs>
<clipPath id="clip0_203_11233">
<rect width="32" height="32" fill="white"/>
</clipPath>
</defs>
</svg>
