<svg width="32" height="32" viewBox="0 0 32 32" fill="none" xmlns="http://www.w3.org/2000/svg">
<path d="M13.1525 12.4516C13.1578 11.6682 13.261 10.9192 13.1631 10.1358C13.0652 9.35245 13.089 8.51612 13.0652 7.70096C13.0413 6.88581 13.0122 6.1183 13.0069 5.32696C13.0016 4.53563 12.9275 3.75223 12.8773 2.9609C12.8587 2.64595 12.4909 2.56655 12.3109 2.80739C11.8742 3.39759 11.3052 3.84486 10.5615 3.91103C9.67487 3.99307 8.80678 4.15452 7.93605 4.34507C7.69785 4.398 7.66345 4.69178 7.80107 4.85322C8.24835 5.36931 8.73267 5.82982 9.10849 6.40678C9.51078 7.02343 9.93423 7.62686 10.3339 8.24617C10.7335 8.86547 11.0723 9.48213 11.4057 10.1173C11.7392 10.7525 12.1177 11.34 12.4273 11.9699C12.5994 12.3193 13.1234 12.0123 12.9514 11.6629C12.6417 11.033 12.2553 10.4349 11.9298 9.81031C11.5751 9.13807 11.2046 8.46848 10.7891 7.83329C10.3736 7.19811 9.97393 6.61586 9.569 6.00449C9.16407 5.39313 8.68503 4.95114 8.22982 4.42447L8.09484 4.93262C8.64534 4.81352 9.19848 4.69442 9.75691 4.60973C10.1407 4.55151 10.5324 4.54092 10.9161 4.48005C11.7207 4.35566 12.3638 3.74429 12.8323 3.1144L12.2659 2.9609C12.3135 3.73106 12.3903 4.49328 12.3956 5.26609C12.4009 6.0786 12.43 6.8911 12.4538 7.70096C12.4776 8.51083 12.4432 9.28363 12.5438 10.075C12.6444 10.8663 12.5438 11.6471 12.5411 12.4516C12.5411 12.8433 13.1472 12.8433 13.1472 12.4516H13.1525Z" fill="#5F97A0"/>
<path d="M7.66874 4.73942C7.15265 5.12317 6.7636 5.62074 6.31368 6.0733C5.86376 6.52587 5.34767 6.97315 4.69131 6.96521C4.48223 6.96521 4.28373 7.23516 4.4293 7.42307C4.63573 7.69303 4.87657 7.89681 5.15711 8.08737C5.49852 8.32027 5.82935 8.57699 6.1787 8.79666C6.86682 9.2307 7.64492 9.55888 8.37274 9.91882C9.10055 10.2788 9.75691 10.7128 10.445 11.131C11.1728 11.5729 11.8848 12.052 12.5464 12.5892C12.8481 12.8327 13.2795 12.4066 12.9752 12.1605C12.3665 11.6656 11.7207 11.2157 11.0564 10.7975C10.3921 10.3793 9.71192 9.91882 9.00263 9.55623C8.29334 9.19365 7.60257 8.86812 6.90916 8.51083C6.54393 8.32292 6.21575 8.09266 5.88493 7.85447C5.5541 7.61627 5.19681 7.43366 4.95597 7.11871L4.69396 7.57658C6.20517 7.59246 6.91446 6.05742 7.97839 5.26609C8.28804 5.03584 7.98633 4.50916 7.67139 4.74206L7.66874 4.73942Z" fill="#5F97A0"/>
<path d="M4.41606 7.40719C4.13023 8.21176 3.81264 9.00839 3.55327 9.82354C3.2939 10.6387 2.97896 11.3692 2.68254 12.1473C2.61108 12.3352 2.7937 12.531 2.97631 12.531C4.58545 12.5443 6.19458 12.4649 7.80372 12.4728C8.61093 12.4781 9.4155 12.5469 10.2227 12.5575C11.0299 12.5681 11.8768 12.5098 12.7052 12.5098C13.0969 12.5098 13.0969 11.9038 12.7052 11.9038C11.8768 11.9038 11.0511 11.9646 10.2227 11.9514C9.39432 11.9382 8.60828 11.8694 7.80372 11.8667C6.19458 11.8588 4.58809 11.9382 2.97631 11.9249L3.27008 12.3087C3.5665 11.5306 3.88674 10.779 4.14082 9.98498C4.39489 9.191 4.71778 8.37585 5.00361 7.56863C5.13329 7.20076 4.54839 7.04196 4.41871 7.40719H4.41606Z" fill="#5F97A0"/>
<path d="M3.17216 12.7639C4.51399 12.793 5.84788 12.8883 7.1897 12.9492C8.53153 13.0101 9.91571 12.9386 11.2787 12.9571C11.9933 12.9677 12.7158 12.8936 13.4277 12.9968C14.1 13.0947 14.7484 13.1318 15.4259 13.1371C16.1035 13.1424 16.7889 13.1212 17.4718 13.1133C18.1546 13.1053 18.8348 13.1609 19.5149 13.1821C21.0606 13.2297 22.6062 13.2271 24.1518 13.2641L23.8474 12.9598C23.8792 14.8283 22.6353 16.5115 21.0844 17.4511C19.5335 18.3906 17.6464 18.6897 15.8653 18.7664C14.0841 18.8432 12.1838 18.8882 10.3392 18.8035C9.46049 18.7638 8.57652 18.7135 7.69521 18.695C6.90122 18.6791 6.18929 18.4224 5.64938 17.8189C5.03537 17.1308 4.7416 16.1516 4.4293 15.302C4.07994 14.3466 3.73853 13.3568 3.46858 12.3749C3.36536 11.9991 2.78046 12.1578 2.88368 12.5363C3.15363 13.5182 3.49505 14.508 3.8444 15.4635C4.14346 16.2786 4.43194 17.1785 4.94009 17.893C5.41913 18.5679 6.11518 19.0761 6.93563 19.2296C7.26646 19.2931 7.59728 19.2957 7.9334 19.3037C8.46801 19.3196 9.00263 19.3593 9.53724 19.3778C10.5244 19.4095 11.5116 19.4492 12.4988 19.4651C13.486 19.481 14.4837 19.4228 15.4736 19.3857C17.4479 19.3143 19.417 19.0337 21.1823 18.0889C22.9476 17.144 24.4906 15.0956 24.4535 12.9571C24.4509 12.7904 24.3159 12.6581 24.1491 12.6528C23.4504 12.6369 22.7491 12.5919 22.0504 12.6078C21.3861 12.621 20.7324 12.6236 20.0681 12.5945C19.3667 12.5628 18.6654 12.5363 17.964 12.5098C17.3024 12.486 16.6434 12.5416 15.9817 12.531C15.2645 12.5204 14.5446 12.5495 13.8353 12.4437C13.1631 12.3431 12.5147 12.3325 11.8371 12.3431C11.1596 12.3537 10.4741 12.3405 9.79396 12.3299C9.11379 12.3193 8.43096 12.3855 7.74814 12.3616C6.22105 12.3061 4.7019 12.1843 3.17481 12.1526C2.78311 12.1446 2.78311 12.7507 3.17481 12.7586L3.17216 12.7639Z" fill="#5F97A0"/>
<path d="M28.3758 8.64316C27.3912 8.63786 26.367 8.41819 25.3904 8.6114C24.6176 8.7649 24.2603 9.38156 23.678 9.83677C22.2833 10.9298 20.7297 11.8006 19.3244 12.8724C18.586 13.4362 17.8714 14.0502 17.1039 14.5689C16.294 15.1167 15.5424 15.7175 14.7696 16.3157C14.3885 16.6121 14.01 16.9138 13.6289 17.2076C13.2187 17.5252 12.7687 17.7872 12.3532 18.0995C12.0277 18.343 11.726 18.6156 11.4163 18.8802C11.0246 19.2137 10.6038 19.5075 10.191 19.8171C9.77808 20.1268 9.40756 20.5132 9.01851 20.8784C8.62946 21.2436 8.19277 21.5559 7.7799 21.8894C7.36703 22.2229 6.89328 22.5299 6.46453 22.8713C6.03579 23.2127 5.64409 23.5912 5.22857 23.9405C5.01684 24.1178 5.19681 24.454 5.44295 24.4593C6.08078 24.4725 6.71596 24.5228 7.35379 24.5122C7.99163 24.5016 8.61887 24.491 9.25406 24.4963C9.88924 24.5016 10.5218 24.499 11.1543 24.4963C11.7869 24.4937 12.422 24.4328 13.0546 24.4169C14.3276 24.3852 15.6165 24.3111 16.8895 24.3666C18.1625 24.4222 19.4197 24.2581 20.6847 24.184C20.9203 24.1708 21.1214 23.8426 20.8991 23.6653C20.0204 22.9613 19.1021 22.3049 18.234 21.5877C17.8185 21.2436 17.4532 20.8466 17.0351 20.5052C16.6169 20.1638 16.1432 19.8356 15.7065 19.4889C15.4048 19.2481 14.9707 19.6742 15.2777 19.9177C15.7144 20.2644 16.1749 20.582 16.6063 20.934C17.0377 21.286 17.3897 21.6724 17.8052 22.0164C18.6733 22.7337 19.5917 23.39 20.4704 24.094L20.6847 23.5753C19.4197 23.6494 18.1572 23.8135 16.8895 23.7579C15.6218 23.7023 14.3276 23.7764 13.0546 23.8082C12.4194 23.8241 11.7895 23.8849 11.1543 23.8876C10.5191 23.8902 9.88659 23.8929 9.25406 23.8876C8.62152 23.8823 7.98898 23.8929 7.35379 23.9035C6.71861 23.9141 6.08078 23.8638 5.44295 23.8505L5.65732 24.3693C6.01461 24.0676 6.35602 23.7473 6.71332 23.4456C7.07061 23.1439 7.48083 22.8872 7.8593 22.5961C8.23776 22.3049 8.61358 21.9953 8.98939 21.6936C9.36521 21.3918 9.67751 21.0584 10.0216 20.7328C10.3392 20.4311 10.7044 20.1876 11.0564 19.9283C11.4507 19.6371 11.8213 19.3222 12.1944 19.002C12.8773 18.4144 13.6501 17.9513 14.3594 17.3955C15.1454 16.7762 15.9103 16.1119 16.7334 15.5402C17.0933 15.2888 17.4718 15.0612 17.8211 14.7965C18.2075 14.5054 18.5754 14.1904 18.9592 13.8967C19.7081 13.3276 20.4545 12.7639 21.2538 12.2637C21.9604 11.8217 22.6379 11.3242 23.3181 10.8425C23.6383 10.6149 23.9639 10.3899 24.2629 10.1358C24.562 9.88177 24.7896 9.51389 25.1337 9.32598C25.5677 9.09043 26.15 9.13278 26.6237 9.15395C27.2086 9.18042 27.7909 9.24129 28.3758 9.24394C28.7675 9.24394 28.7675 8.63786 28.3758 8.63786V8.64316Z" fill="#5F97A0"/>
<path d="M8.97087 24.0093C8.3251 23.7129 7.50465 23.6468 6.82977 23.8902C6.34279 24.0649 5.79494 24.3693 5.42442 24.7424C4.52987 25.6449 4.81835 27.135 5.48529 28.0878C6.26604 29.202 7.60787 29.329 8.83854 29.0564C9.44196 28.9241 10.0083 28.6303 10.3471 28.0957C10.6859 27.5611 10.7097 26.9577 10.6171 26.3754C10.4636 25.3882 9.87071 24.4672 8.96822 24.012C8.62152 23.8347 8.31186 24.3587 8.66122 24.536C9.2964 24.8563 9.74103 25.4359 9.93423 26.1054C10.1857 26.9656 10.0613 27.9581 9.1376 28.3365C8.27746 28.6885 7.06796 28.7521 6.32426 28.1248C6.01197 27.8601 5.82141 27.5081 5.67585 27.1323C5.47735 26.6215 5.35031 26.0552 5.59645 25.5338C5.80553 25.0892 6.28192 24.8271 6.70008 24.6075C7.28498 24.3005 8.0525 24.2581 8.66122 24.536C9.01321 24.6975 9.32287 24.1734 8.96822 24.012L8.97087 24.0093Z" fill="#5F97A0"/>
<path d="M20.6503 24.3481C20.0628 24.0861 19.4779 23.9749 18.848 23.877C18.324 23.795 17.8582 23.7738 17.3685 23.9988C16.8339 24.2422 16.3655 24.6366 16.0505 25.1368C15.7038 25.6899 15.6191 26.3198 15.7276 26.955C15.8891 27.9025 16.4978 28.8341 17.4162 29.1967C18.3345 29.5593 19.4011 29.1596 20.0945 28.4768C20.9785 27.6061 21.2035 26.1637 20.9626 24.9833C20.8859 24.5995 20.2983 24.7636 20.3777 25.1447C20.5471 25.9705 20.4254 26.955 19.9702 27.6722C19.5679 28.3048 18.7607 28.8209 17.9931 28.7256C17.2256 28.6303 16.6645 27.9634 16.4343 27.2779C16.2649 26.775 16.2093 26.2113 16.429 25.7138C16.6328 25.2506 17.006 24.888 17.4426 24.6419C17.8423 24.4169 18.1916 24.3878 18.6495 24.4593C19.2317 24.5492 19.7981 24.6313 20.3433 24.8748C20.698 25.0336 21.005 24.5095 20.6503 24.3507V24.3481Z" fill="#5F97A0"/>
<path d="M10.3842 27.4235C11.3158 27.4049 12.2421 27.3494 13.171 27.3202C14.1 27.2911 15.0289 27.2752 15.9579 27.2594C16.347 27.2514 16.3496 26.6454 15.9579 26.6533C15.0289 26.6692 14.1 26.6851 13.171 26.7142C12.2421 26.7433 11.3158 26.7989 10.3842 26.8174C9.9951 26.8253 9.99246 27.4314 10.3842 27.4235Z" fill="#5F97A0"/>
<path d="M8.76443 13.4679C8.558 13.2906 8.31186 13.2641 8.0472 13.2721C7.78254 13.28 7.51788 13.2879 7.25587 13.3197C6.72655 13.3806 6.22899 13.5208 5.80553 13.849L6.1046 14.0793C6.37455 13.6161 6.89328 13.37 7.42261 13.4335C7.66609 13.4626 7.6608 13.0868 7.42261 13.055C6.81389 12.973 6.14165 12.9095 5.60968 13.2827C5.13065 13.6188 4.9348 14.2831 4.94803 14.8468C4.96126 15.4105 5.30003 15.9663 5.89022 15.9981C6.44336 16.0272 6.75831 15.5058 6.95416 15.0665C7.05208 14.8468 6.72655 14.6536 6.62598 14.8759C6.49365 15.167 6.28457 15.6593 5.89022 15.6196C5.40325 15.572 5.28944 14.9897 5.33973 14.598C5.39531 14.1534 5.5541 13.7114 5.98021 13.5076C6.40631 13.3038 6.95151 13.3753 7.42525 13.4362V13.0577C6.76889 12.9783 6.10989 13.3224 5.77906 13.8914C5.66261 14.0925 5.91669 14.246 6.07813 14.1216C6.41425 13.8596 6.843 13.7511 7.26116 13.7035C7.47024 13.6796 7.67933 13.6691 7.89105 13.6611C8.07896 13.6558 8.34892 13.6082 8.50242 13.7432C8.68768 13.902 8.95764 13.6347 8.76973 13.4759L8.76443 13.4679Z" fill="#5F97A0"/>
<path d="M9.55312 14.1851C11.2417 13.9443 12.9355 13.7723 14.6372 13.6611C14.8781 13.6452 14.8834 13.28 14.6372 13.2827L7.07855 13.3144L7.12883 13.6876C9.81514 13.2906 12.5358 13.153 15.2486 13.2668V12.8883C12.1759 12.973 9.10585 13.0603 6.03314 13.145V13.5235C9.35198 13.407 12.6708 13.3409 15.9923 13.325L15.942 12.9518C14.4096 13.4891 12.7476 13.6082 11.1464 13.7961C9.54518 13.984 7.88576 14.1507 6.25281 14.2937C6.01197 14.3148 6.00667 14.6854 6.25281 14.6721C9.70662 14.516 13.1631 14.3572 16.6169 14.201V13.8226C13.6686 14.0872 10.7229 14.3519 7.7746 14.6165V14.995C10.2862 14.7356 12.8084 14.6139 15.3333 14.6271V14.2487C13.2451 14.4869 11.1517 14.6457 9.05291 14.7251C8.80943 14.7356 8.80678 15.1035 9.05291 15.1035C11.6175 15.1247 14.1847 15.1485 16.7492 15.1697V14.7912C14.1714 15.0374 11.591 15.2861 9.01321 15.5323C8.77502 15.5561 8.76443 15.9107 9.01321 15.9107C11.4507 15.9213 13.8856 15.9293 16.3231 15.9398V15.5614C13.965 15.7837 11.6042 15.961 9.24082 16.0933C8.99998 16.1066 8.99469 16.4718 9.24082 16.4718C11.501 16.4877 13.7639 16.5062 16.0241 16.5221V16.1436C14.3567 16.3368 12.6893 16.5327 11.022 16.7259C10.7864 16.7524 10.7706 17.0991 11.022 17.1043C12.3532 17.1388 13.6818 17.1705 15.0131 17.2049V16.8265C13.3245 16.98 11.6386 17.1361 9.95011 17.2896C9.70662 17.3108 9.70662 17.6469 9.95011 17.6681C11.4031 17.7951 12.8534 17.9195 14.3064 18.0465V17.6681C12.6867 17.7078 11.067 17.7501 9.44461 17.7898C9.24082 17.7951 9.17466 18.1286 9.39433 18.163C10.4106 18.3218 11.4322 18.4382 12.4564 18.515V18.1365L8.52889 18.0015C8.28275 17.9936 8.28804 18.3641 8.52889 18.38L9.85483 18.4753C10.0983 18.4938 10.0957 18.1154 9.85483 18.0968C8.8306 18.0121 7.80636 17.9301 6.78213 17.8454V18.2239C7.45172 18.1577 8.10014 18.0015 8.72473 17.7475C8.92058 17.6681 8.89676 17.3928 8.67445 17.3743C7.81166 17.3028 6.95151 17.234 6.08872 17.1626L6.139 17.5357C7.14736 17.3664 8.15571 17.197 9.16407 17.0276C9.39432 16.9879 9.30699 16.6782 9.11378 16.6544C8.12925 16.538 7.13942 16.4718 6.14959 16.4559L6.19987 16.8291C6.89858 16.6994 7.56287 16.4586 8.18483 16.1172C8.33039 16.0378 8.29069 15.8155 8.13983 15.7705C7.31145 15.5243 6.46983 15.3496 5.61497 15.2385L5.66526 15.6117C6.44866 15.4555 7.23205 15.2994 8.01544 15.1432C8.21129 15.1035 8.17953 14.8336 8.01544 14.778C7.27175 14.5266 6.49629 14.4286 5.7129 14.4922L5.76318 14.8653C6.21046 14.7965 6.6498 14.6933 7.08119 14.5557C7.24528 14.5027 7.27704 14.2222 7.08119 14.1904C6.31368 14.0634 5.54087 13.9972 4.76012 13.9999L4.81041 14.3731L5.7473 14.1269C5.92992 14.0793 5.92463 13.812 5.7473 13.7617C5.26033 13.6188 4.76541 13.5156 4.26256 13.4467L4.30755 13.7934L4.74424 13.5711C4.90039 13.4917 4.84217 13.2747 4.69925 13.2244C4.61721 13.1953 4.53516 13.1662 4.45312 13.1397L4.40283 13.5129C4.78129 13.4838 5.15976 13.452 5.54087 13.4229C5.78171 13.4044 5.787 13.0471 5.54087 13.0445L4.43194 13.0233C4.18581 13.018 4.1911 13.3885 4.43194 13.4018C5.52234 13.4679 6.61539 13.497 7.70844 13.4944C7.95457 13.4944 7.95193 13.1265 7.70844 13.1159C6.78213 13.0683 5.85582 13.0206 4.93215 12.973V13.3515C6.80595 13.28 8.68239 13.3409 10.5509 13.4864L10.5006 13.1133C8.56064 13.4017 6.61804 13.6902 4.67808 13.9787C4.4637 14.0105 4.51928 14.3572 4.72836 14.3519C6.4513 14.3148 8.17424 14.2778 9.89718 14.2407V13.8623C8.6374 13.984 7.37497 14.0687 6.10724 14.1137C5.86376 14.1216 5.86111 14.4974 6.10724 14.4922C7.54435 14.4683 8.97881 14.4419 10.4159 14.418L10.3656 14.0449C8.91794 14.246 7.47289 14.4445 6.0252 14.6457C5.80553 14.6774 5.8717 15.0082 6.07548 15.0188C7.80372 15.0982 9.53195 15.1776 11.2602 15.257V14.8786C9.87601 14.9765 8.49713 15.1273 7.12354 15.3258C6.91446 15.3549 6.9621 15.7228 7.17382 15.699C8.35686 15.5693 9.54783 15.4952 10.7388 15.4793L10.6885 15.1062C8.96028 15.6222 7.20558 16.0351 5.42971 16.3448C5.22063 16.3818 5.26562 16.7391 5.48 16.7179C6.2581 16.6385 7.02826 16.5036 7.78519 16.3051L7.59993 15.9875L7.35115 16.276H7.61845C7.20823 15.871 6.83241 15.4396 6.491 14.9738C6.37455 14.8177 6.05696 14.9024 6.1443 15.1194L6.56511 16.1807L6.8827 15.9954C6.21046 15.2782 5.53558 14.5636 4.86334 13.8464C4.7416 13.7167 4.47164 13.8517 4.54575 14.0316C4.8951 14.8706 5.36884 15.6328 5.97227 16.3157C6.11254 16.4745 6.40102 16.2601 6.27133 16.0854C5.8664 15.5508 5.46412 15.0135 5.05919 14.4789C4.9295 14.3042 4.67808 14.4075 4.71248 14.6245C4.86863 15.5878 5.23651 16.493 5.79494 17.2896C5.93521 17.4908 6.22634 17.3187 6.12312 17.0991C5.55675 15.8843 4.88716 14.7224 4.117 13.6214C4.00584 13.4626 3.78352 13.5288 3.76235 13.7167C3.69883 14.3386 4.13288 14.9712 4.41342 15.4979C4.75218 16.133 5.12271 16.7471 5.5197 17.3478C5.63085 17.5146 5.95374 17.4114 5.8664 17.2023C5.61762 16.6015 5.35825 16.0139 4.92421 15.5243C4.78129 15.3655 4.50605 15.5746 4.62515 15.7546C5.20211 16.6121 5.77642 17.4722 6.35338 18.3297C6.39572 18.3932 6.48835 18.4488 6.56775 18.4171C8.4045 17.6945 10.0401 16.5936 11.6254 15.437C11.8186 15.2967 11.6492 14.9818 11.4349 15.1088C10.5165 15.6514 9.63252 16.2468 8.78031 16.8873L9.05821 17.1017C9.14819 16.8397 9.1826 16.5803 9.16407 16.3051C9.15348 16.1304 8.97087 16.0695 8.84119 16.1701C8.42567 16.4956 8.0922 16.89 7.83547 17.3505C7.7349 17.5331 7.98633 17.7475 8.13454 17.5807C8.58711 17.0726 9.03968 16.5644 9.4896 16.0589C9.63252 15.8975 9.4552 15.6593 9.25935 15.7599C8.43361 16.1939 7.66345 16.7153 6.95151 17.3161C6.84829 17.4034 6.90122 17.549 6.99121 17.6151C8.08955 18.4197 9.62193 18.0783 10.2968 16.9059C10.3921 16.7391 10.2015 16.5565 10.0374 16.6465C9.53989 16.9191 9.07409 17.2367 8.6321 17.594C8.44949 17.7395 8.68239 17.9698 8.86236 17.893C9.7225 17.5146 10.5826 17.1361 11.4428 16.7603L11.2125 16.4612C10.76 16.9561 10.2412 17.3717 9.65634 17.7051C9.44196 17.8269 9.63252 18.1445 9.84689 18.0333C10.535 17.6734 11.2231 17.3161 11.9112 16.9561C12.1018 16.8556 11.9695 16.5512 11.7657 16.6094C10.5747 16.9482 9.39697 17.3293 8.23511 17.7581C8.05514 17.8242 8.05514 18.0571 8.23511 18.1233C9.30699 18.515 10.4 18.8405 11.5143 19.0919L11.5645 18.7188C10.797 18.6658 10.0295 18.6129 9.26199 18.5573L8.17424 18.4806C7.78254 18.4541 7.36703 18.4568 7.00444 18.2847L6.90916 18.6394C9.50548 18.8405 12.123 18.552 14.6161 17.7978L14.5155 17.4325C13.351 17.8586 12.1283 18.0386 10.9055 18.2106C10.7256 18.2371 10.7229 18.552 10.9055 18.5759C12.7423 18.8246 14.5843 18.6844 16.4211 18.5309L16.3708 18.1577C15.8785 18.3297 15.3836 18.5044 14.8913 18.6764C14.7008 18.7426 14.7166 19.0628 14.9416 19.0496C16.6381 18.9517 18.3213 18.7055 19.9728 18.3086L19.8722 17.9433C19.2318 18.2 18.5701 18.3853 17.8899 18.515L17.9905 18.8802C20.3857 18.3694 22.458 16.6703 23.4213 14.4154L23.0746 14.2698C22.9105 14.6721 22.7464 15.0771 22.5824 15.4793C22.4977 15.6884 22.8153 15.7916 22.9291 15.6249C23.2863 15.0956 23.596 14.5398 23.858 13.9549C23.9559 13.7352 23.6622 13.5526 23.5298 13.7643C23.2625 14.1957 23.0217 14.6404 22.8047 15.1009L23.1514 15.2464C23.2255 14.8891 23.3022 14.5318 23.3763 14.1719C23.4002 14.0608 23.3234 13.9205 23.1937 13.9311C20.5815 14.1481 17.9587 14.209 15.3386 14.1084L15.3889 14.4816C16.556 14.0211 17.7549 13.6532 18.9803 13.3806C19.1894 13.3329 19.1444 13.0021 18.93 13.0074C17.4347 13.0524 15.942 13.0947 14.4467 13.1397C14.2032 13.1477 14.2032 13.5261 14.4467 13.5182C16.7572 13.4626 19.0677 13.4785 21.3755 13.5605V13.1821C19.8246 13.28 18.271 13.3065 16.7175 13.2641V13.6426C18.3981 13.6347 20.0813 13.6267 21.7619 13.6161L21.7116 13.243C20.1925 13.5314 18.6627 13.7723 17.1277 13.9602C16.8922 13.9893 16.8763 14.3439 17.1277 14.3386C19.1629 14.2963 21.1982 14.201 23.2281 14.0555L23.1778 13.6823C20.9468 14.0396 18.7077 14.3386 16.4608 14.5768L16.511 14.95C17.8793 14.7065 19.2582 14.553 20.6477 14.4922L20.5974 14.119C19.1682 14.6298 17.6914 14.995 16.1882 15.2094L16.2887 15.5746C17.8423 15.3338 19.3932 15.0903 20.9468 14.8494L20.8462 14.4842C18.9089 15.0638 16.9716 15.6434 15.0342 16.223C14.796 16.2945 14.8993 16.6253 15.1348 16.5883L20.3592 15.7652L20.2586 15.3999C18.4801 16.1092 16.6593 16.7074 14.8066 17.1917L14.9522 17.5384C15.7938 17.0779 16.6698 16.6941 17.5829 16.3924L17.3977 16.0748C16.871 16.5406 16.3046 16.9535 15.6985 17.3161C15.4842 17.4458 15.6721 17.7369 15.8891 17.6443C16.7334 17.2817 17.6041 16.9853 18.4933 16.7497L18.3081 16.4321C17.7073 17.0858 17.0113 17.6204 16.2252 18.0307L16.4158 18.3588C17.7179 17.6098 19.0174 16.8635 20.3195 16.1145L20.0893 15.8155C19.5017 16.4401 18.8665 17.017 18.1863 17.541C17.9984 17.6866 18.1572 17.991 18.3769 17.8692C19.3111 17.3531 20.1819 16.7338 20.9812 16.0245C21.1664 15.8604 20.8991 15.6037 20.7138 15.7572C20.1263 16.2389 19.5679 16.7471 19.0359 17.287C18.8903 17.4352 19.0888 17.7184 19.2662 17.586L21.8625 15.6223L21.6322 15.3232C21.087 15.8684 20.5815 16.4453 20.1104 17.0541C19.9649 17.242 20.2004 17.4987 20.3777 17.3214C21.1267 16.5856 21.8281 15.8049 22.4818 14.9844L22.1827 14.7542C21.8492 15.302 21.5369 15.8657 21.2511 16.4401C21.1585 16.6253 21.394 16.8344 21.5502 16.6703C22.233 15.9584 22.847 15.1882 23.3896 14.3651C23.506 14.1878 23.2334 13.9708 23.0905 14.1349C22.5876 14.7145 22.0848 15.2914 21.5819 15.871L21.881 16.1013C22.2542 15.3126 22.6247 14.5239 22.9979 13.7352C23.0852 13.55 22.8576 13.3382 22.6988 13.505C22.008 14.2354 21.3146 14.9659 20.6239 15.6937L20.9229 15.924C21.2961 15.4105 21.6693 14.8997 22.0424 14.3863C22.1801 14.1957 21.8969 14.0369 21.7434 14.156C21.0261 14.7118 20.3513 15.3126 19.7187 15.961L19.986 16.2283C20.6186 15.4899 21.2855 14.7859 21.9895 14.1137C22.1668 13.9443 21.9048 13.6876 21.7222 13.8464C21.0685 14.4101 20.3963 14.9527 19.7028 15.4687L19.9887 15.6328C19.9119 15.0162 20.5815 14.5583 20.6186 13.9364C20.6265 13.7961 20.4492 13.6955 20.3327 13.7723C19.4541 14.3492 18.578 14.9262 17.6994 15.5032L17.0536 15.9266C16.8763 16.0431 16.519 16.3792 16.3814 16.0563C16.2993 15.8631 16.3311 15.5032 16.3125 15.2914C16.2887 15.0135 16.2649 14.733 16.2411 14.4551C16.2305 14.3175 16.0876 14.2116 15.9553 14.291C14.931 14.9156 13.9491 15.5984 13.0043 16.3395C12.8296 16.4745 13.0519 16.7391 13.2345 16.6385C14.4202 15.9716 15.59 15.2835 16.7466 14.5663C16.9557 14.4366 16.7731 14.1322 16.556 14.2381C14.8463 15.0691 13.1578 15.9398 11.4878 16.8476L11.6783 17.1758C13.3139 16.223 14.984 15.3338 16.6884 14.5107C16.8789 14.418 16.7439 14.0846 16.5428 14.164C14.9866 14.77 13.396 15.2729 11.7763 15.6752L11.9218 16.0219C13.0784 15.3047 14.28 14.6695 15.5265 14.1216C15.725 14.0343 15.5821 13.714 15.3809 13.7749C13.3801 14.3731 11.3634 14.9183 9.33081 15.4105L9.47637 15.7572C10.707 15.1856 11.9721 14.6933 13.2663 14.2778C13.4966 14.2037 13.3986 13.8358 13.1657 13.9125C11.8424 14.3386 10.5482 14.8468 9.28581 15.4317C9.08467 15.5243 9.23024 15.8287 9.43138 15.7784C11.4613 15.2861 13.478 14.7409 15.4815 14.1428L15.3359 13.7961C14.0894 14.3439 12.8878 14.9791 11.7313 15.6964C11.5487 15.8102 11.6651 16.096 11.8768 16.0431C13.4966 15.6408 15.0872 15.1379 16.6434 14.5318L16.4978 14.1851C14.7934 15.0082 13.1234 15.8975 11.4878 16.8503C11.2761 16.9747 11.464 17.2949 11.6783 17.1785C13.3484 16.2707 15.0369 15.3999 16.7466 14.5689L16.556 14.2407C15.3995 14.9553 14.2297 15.6461 13.044 16.313L13.2742 16.6121C14.1926 15.8922 15.1507 15.2279 16.1485 14.6218L15.8626 14.4577C15.8917 14.8018 15.9208 15.1459 15.95 15.4873C15.9711 15.7413 15.9526 16.0457 16.0452 16.2892C16.2226 16.7576 16.7095 16.6015 17.0298 16.3951C18.1996 15.6408 19.3588 14.8653 20.5233 14.0978L20.2375 13.9337C20.1978 14.5636 19.5202 14.958 19.6076 15.6302C19.6234 15.7546 19.7637 15.8896 19.8934 15.7943C20.6133 15.2597 21.312 14.6986 21.9895 14.1137L21.7222 13.8464C21.0182 14.5186 20.3513 15.2226 19.7187 15.961C19.5626 16.1436 19.814 16.4056 19.986 16.2283C20.6186 15.5799 21.2961 14.9791 22.0107 14.4233L21.7116 14.1931C21.3384 14.7065 20.9653 15.2173 20.5921 15.7308C20.4651 15.9054 20.743 16.1145 20.8912 15.961C21.5819 15.2306 22.2753 14.5001 22.9661 13.7723L22.667 13.542C22.2939 14.3307 21.9233 15.1194 21.5502 15.9081C21.4655 16.0881 21.6957 16.313 21.8492 16.1383C22.3521 15.5587 22.8549 14.9818 23.3578 14.4022L23.0587 14.1719C22.5321 14.9685 21.9392 15.7122 21.2802 16.4004L21.5793 16.6306C21.8651 16.0563 22.1774 15.4926 22.5109 14.9447C22.6194 14.7647 22.3495 14.5424 22.2118 14.7145C21.5555 15.5349 20.8541 16.313 20.1078 17.0514L20.3751 17.3187C20.8462 16.71 21.3543 16.133 21.8969 15.5878C22.0424 15.4396 21.8439 15.1564 21.6666 15.2888L19.0703 17.2526L19.3006 17.5516C19.8325 17.0117 20.3936 16.5009 20.9785 16.0219L20.7112 15.7546C19.9357 16.4427 19.0915 17.0382 18.1837 17.541L18.3743 17.8692C19.0809 17.3267 19.7425 16.7338 20.3539 16.0854C20.4995 15.9293 20.3142 15.6778 20.1237 15.7863C18.8215 16.5353 17.522 17.2817 16.2199 18.0307C16.0082 18.1524 16.1961 18.47 16.4105 18.3588C17.223 17.9327 17.9508 17.3743 18.5701 16.6994C18.6971 16.5618 18.5727 16.3315 18.3848 16.3818C17.4638 16.628 16.5666 16.9403 15.6906 17.3161L15.8811 17.6443C16.5137 17.2658 17.1065 16.8317 17.657 16.3448C17.7973 16.2204 17.6491 15.969 17.4718 16.0272C16.5296 16.3395 15.6218 16.7338 14.7511 17.2102C14.5605 17.3134 14.6902 17.6098 14.8966 17.5569C16.7492 17.0726 18.5701 16.4718 20.3486 15.7652C20.5762 15.6752 20.4915 15.3602 20.248 15.3999L15.0237 16.223L15.1242 16.5883C17.0615 16.0087 18.9988 15.429 20.9362 14.8494C21.1744 14.778 21.0711 14.4472 20.8356 14.4842C19.282 14.7251 17.7311 14.9685 16.1776 15.2094C15.9367 15.2464 16.0399 15.609 16.2781 15.5746C17.7814 15.3602 19.2556 14.995 20.6874 14.4842C20.8779 14.4154 20.8647 14.1005 20.6371 14.111C19.2159 14.1746 17.8026 14.3334 16.3999 14.5821C16.1908 14.6192 16.2358 14.9765 16.4502 14.9553C18.7315 14.7145 21.005 14.4101 23.2678 14.0475C23.4769 14.0131 23.4293 13.6585 23.2175 13.6744C21.1876 13.8199 19.1524 13.9152 17.1171 13.9575V14.336C18.6866 14.1454 20.248 13.902 21.8016 13.6055C22.0133 13.5658 21.9604 13.2324 21.7513 13.2324C20.0707 13.2403 18.3875 13.2482 16.7069 13.2588C16.4634 13.2588 16.4634 13.632 16.7069 13.6373C18.2604 13.6796 19.814 13.6532 21.3649 13.5553C21.6084 13.5394 21.611 13.1847 21.3649 13.1768C19.0571 13.0947 16.7466 13.0789 14.4361 13.1344V13.5129C15.9314 13.4679 17.4241 13.4256 18.9195 13.3806L18.8692 13.0074C17.6438 13.28 16.4449 13.6479 15.2777 14.1084C15.0845 14.1851 15.103 14.4736 15.328 14.4816C17.9481 14.5795 20.5709 14.5213 23.1831 14.3042L23.0005 14.0634C22.9264 14.4207 22.8497 14.778 22.7756 15.1379C22.7332 15.3364 23.027 15.4899 23.1223 15.2835C23.3366 14.823 23.5801 14.3783 23.8474 13.9469L23.5192 13.7564C23.2572 14.3413 22.9502 14.8971 22.5903 15.4264L22.937 15.572C23.1011 15.1697 23.2652 14.7648 23.4293 14.3625C23.5087 14.164 23.1673 14.0184 23.0826 14.2169C22.1536 16.3898 20.1898 18.0148 17.8767 18.507C17.6358 18.5573 17.7391 18.9173 17.9773 18.8723C18.6548 18.7426 19.3164 18.5573 19.9596 18.3006C20.1819 18.2133 20.1025 17.8772 19.859 17.9354C18.2393 18.3244 16.5904 18.5679 14.9284 18.6632L14.9787 19.0364C15.4709 18.8643 15.9658 18.6897 16.4581 18.5176C16.646 18.4515 16.6354 18.1259 16.4078 18.1445C14.6081 18.298 12.7899 18.4488 10.9929 18.2027V18.5679C12.2156 18.3959 13.4383 18.2159 14.6028 17.7898C14.8278 17.7078 14.7378 17.3531 14.5023 17.4246C12.0383 18.1709 9.46314 18.4515 6.89858 18.253C6.71332 18.2397 6.63392 18.5256 6.8033 18.6076C7.45966 18.9199 8.2854 18.8643 8.99469 18.9146C9.84689 18.9728 10.6991 19.0337 11.5513 19.0919C11.763 19.1078 11.8107 18.7664 11.6016 18.7188C10.4874 18.4673 9.39432 18.1418 8.32245 17.7501V18.1154C9.48431 17.6866 10.662 17.3055 11.853 16.9667L11.7075 16.62C11.0193 16.98 10.3312 17.3372 9.64311 17.6972L9.83366 18.0254C10.445 17.6787 10.9929 17.242 11.4666 16.7232C11.6201 16.5565 11.4296 16.3395 11.2364 16.4242C10.3762 16.8026 9.51607 17.1811 8.65592 17.5569L8.88618 17.856C9.30169 17.5199 9.74632 17.2261 10.2148 16.9694L9.9554 16.71C9.37315 17.7184 8.10013 17.9645 7.16853 17.2817L7.20823 17.5807C7.89635 16.9985 8.64269 16.5009 9.43932 16.0828L9.20906 15.7837C8.75649 16.2918 8.30392 16.8 7.854 17.3055L8.15307 17.5357C8.39655 17.1017 8.70886 16.7365 9.10055 16.4321L8.77767 16.2971C8.79355 16.5406 8.76443 16.7603 8.68504 16.9932C8.63475 17.1414 8.8306 17.3081 8.96293 17.2076C9.81514 16.5671 10.6991 15.9716 11.6175 15.429L11.4269 15.1009C9.87071 16.2363 8.26158 17.332 6.45924 18.0412L6.67362 18.1286C6.09666 17.2711 5.52234 16.4109 4.94538 15.5534L4.64632 15.7837C5.03537 16.223 5.26827 16.7576 5.49058 17.2949L5.83729 17.1493C5.48529 16.6174 5.15447 16.0748 4.84746 15.5164C4.69925 15.2464 4.55633 14.9738 4.41871 14.6959C4.26256 14.3783 4.09318 14.0713 4.13023 13.7088L3.77558 13.804C4.5431 14.905 5.21269 16.0669 5.78171 17.2817L6.10989 17.0911C5.56734 16.3157 5.21534 15.4502 5.06448 14.516L4.71778 14.6615C5.12271 15.1961 5.52499 15.7334 5.92992 16.268L6.22899 16.0378C5.6732 15.4079 5.22328 14.6986 4.90039 13.9231L4.5828 14.1084C5.25504 14.8256 5.92992 15.5402 6.60216 16.2574C6.72655 16.3898 6.99121 16.2521 6.91975 16.0722L6.49894 15.0109L6.15224 15.1564C6.51217 15.6461 6.90652 16.1066 7.33791 16.5353C7.40673 16.6041 7.53906 16.6147 7.60522 16.5353L7.854 16.2469C7.9731 16.1066 7.86194 15.879 7.66874 15.9293C6.94357 16.1198 6.20781 16.2548 5.46412 16.3289L5.5144 16.7021C7.29027 16.3924 9.04497 15.9795 10.7732 15.4635C10.9743 15.4026 10.9426 15.0876 10.7229 15.0903C9.53195 15.1062 8.34362 15.1803 7.15794 15.31L7.20823 15.6831C8.54741 15.4899 9.89453 15.347 11.2443 15.2491C11.4878 15.2306 11.4904 14.8812 11.2443 14.8706C9.51607 14.7912 7.78784 14.7118 6.0596 14.6324L6.10989 15.0056C7.55758 14.8045 9.00263 14.606 10.4503 14.4048C10.6647 14.3757 10.6091 14.029 10.4 14.0316C8.96293 14.0555 7.52847 14.0819 6.09136 14.1057V14.4842C7.35644 14.4392 8.61887 14.3545 9.8813 14.2328C10.1195 14.209 10.1301 13.849 9.8813 13.8543C8.15836 13.8914 6.43542 13.9284 4.71248 13.9655L4.76277 14.3386C6.70273 14.0502 8.64534 13.7617 10.5853 13.4732C10.8103 13.4388 10.7335 13.1159 10.535 13.1C8.66386 12.9545 6.79007 12.8936 4.91627 12.9651C4.67278 12.973 4.67278 13.3329 4.91627 13.3435C5.84258 13.3912 6.76889 13.4388 7.69256 13.4864V13.108C6.59951 13.1106 5.50646 13.0815 4.41606 13.0153V13.3938L5.52499 13.415V13.0365C5.14653 13.0656 4.76806 13.0974 4.38695 13.1265C4.17258 13.1424 4.13023 13.4282 4.33667 13.4997C4.41871 13.5288 4.50075 13.5579 4.5828 13.5844L4.53781 13.2377L4.10112 13.46C3.96614 13.5288 3.98202 13.7855 4.14611 13.8067C4.64896 13.8755 5.14388 13.9787 5.63085 14.1216V13.7564L4.69396 14.0025C4.48752 14.0555 4.52987 14.3757 4.74424 14.3757C5.48794 14.3757 6.22899 14.4313 6.96474 14.553V14.1878C6.53335 14.3254 6.09401 14.4286 5.64673 14.4974C5.43765 14.5292 5.48529 14.8865 5.69702 14.8706C6.44865 14.8097 7.18441 14.8997 7.89635 15.1432V14.778C7.11295 14.9341 6.32956 15.0903 5.54616 15.2464C5.31591 15.2914 5.40325 15.5931 5.59645 15.6196C6.4169 15.7281 7.22676 15.9028 8.02074 16.1383L7.97575 15.7916C7.38026 16.1198 6.74772 16.3421 6.08078 16.4665C5.8664 16.5062 5.92463 16.8344 6.13106 16.8397C7.12354 16.8556 8.11072 16.9217 9.09526 17.0382L9.04497 16.665C8.03662 16.8344 7.02826 17.0038 6.01991 17.1732C5.79494 17.2102 5.8717 17.5305 6.07019 17.5463C6.93298 17.6178 7.79313 17.6866 8.65592 17.7581L8.60564 17.3849C8.0128 17.6257 7.40143 17.7819 6.7636 17.848C6.52276 17.8719 6.51747 18.208 6.7636 18.2265C7.78784 18.3112 8.81207 18.3932 9.83631 18.4779V18.0995L8.51036 18.0042V18.3827L12.4379 18.5176C12.6841 18.5256 12.6788 18.155 12.4379 18.1392C11.4454 18.0651 10.4583 17.9539 9.47637 17.8004L9.42608 18.1736C11.0458 18.1339 12.6655 18.0915 14.2879 18.0518C14.534 18.0465 14.5287 17.6945 14.2879 17.6734C12.8349 17.5463 11.3846 17.4219 9.93159 17.2949V17.6734C11.6201 17.5199 13.306 17.3637 14.9945 17.2102C15.2354 17.189 15.2433 16.837 14.9945 16.8317C13.6633 16.7973 12.3347 16.7656 11.0035 16.7312V17.1096C12.6708 16.9164 14.3382 16.7206 16.0055 16.5274C16.2411 16.5009 16.257 16.1489 16.0055 16.1489C13.7453 16.133 11.4825 16.1145 9.2223 16.0986V16.4771C11.5857 16.3448 13.9465 16.1674 16.3046 15.9451C16.5428 15.9213 16.5534 15.5667 16.3046 15.5667C13.8671 15.5561 11.4322 15.5481 8.99469 15.5376V15.916C11.5725 15.6699 14.1529 15.4211 16.7307 15.175C16.9689 15.1512 16.9795 14.7965 16.7307 14.7965C14.1662 14.7753 11.5989 14.7515 9.03439 14.7303V15.1088C11.1331 15.0268 13.2293 14.868 15.3148 14.6324C15.5503 14.606 15.5662 14.254 15.3148 14.254C12.7899 14.2407 10.2677 14.3625 7.75608 14.6218C7.51524 14.6457 7.51259 15.0241 7.75608 15.0003C10.7044 14.7356 13.6501 14.471 16.5984 14.2063C16.8366 14.1851 16.8445 13.8146 16.5984 13.8279C13.1446 13.984 9.6881 14.1428 6.23428 14.2989L6.23428 14.6774C7.91223 14.5318 9.58488 14.3625 11.2575 14.1666C12.9302 13.9708 14.5049 13.8596 16.0267 13.325C16.2226 13.2562 16.1987 12.9518 15.9764 12.9518C12.6549 12.9677 9.3361 13.0339 6.01726 13.1503C5.77377 13.1583 5.77112 13.5367 6.01726 13.5288C9.08996 13.4441 12.16 13.3568 15.2327 13.2721C15.4762 13.2641 15.4762 12.9042 15.2327 12.8936C12.4829 12.7772 9.73309 12.9254 7.01238 13.3276C6.79801 13.3594 6.85359 13.7008 7.06267 13.7008C9.58223 13.6902 12.1018 13.6796 14.6214 13.6691V13.2906C12.8852 13.4017 11.157 13.5817 9.43667 13.8279C9.19583 13.8623 9.29905 14.2275 9.53724 14.1931L9.55312 14.1851Z" fill="#5F97A0"/>
<path d="M17.4665 14.6298C17.6808 14.9421 17.8979 15.2544 18.1122 15.5693C18.1678 15.6514 18.2816 15.6964 18.3716 15.6381C18.4536 15.5852 18.4986 15.4661 18.4404 15.3788C18.226 15.0665 18.009 14.7542 17.7946 14.4392C17.7391 14.3572 17.6253 14.3122 17.5353 14.3704C17.4532 14.4233 17.4082 14.5424 17.4665 14.6298Z" fill="#5F97A0"/>
<path d="M15.6059 16.9853C15.3492 17.0117 15.0978 17.0594 14.8516 17.1335C14.6558 17.1943 14.6796 17.5278 14.9019 17.5066C15.7224 17.4272 16.5481 17.3531 17.3712 17.4458L17.3209 17.0726C16.4846 17.2605 15.6377 17.3796 14.7802 17.4299C14.5367 17.4431 14.5367 17.8242 14.7802 17.8083C15.6694 17.7581 16.5534 17.6337 17.4215 17.4378C17.6464 17.3875 17.5697 17.0885 17.3712 17.0646C16.5481 16.972 15.7224 17.0461 14.9019 17.1255L14.9522 17.4987C15.1666 17.4325 15.3836 17.3875 15.6059 17.3637C15.7091 17.3531 15.7938 17.2843 15.7965 17.1732C15.7965 17.0779 15.7091 16.972 15.6059 16.9826V16.9853Z" fill="#5F97A0"/>
<path d="M14.4626 17.9804C16.4422 17.893 18.4166 17.6998 20.3777 17.4034L20.2772 17.0382L15.6721 17.8613C15.4577 17.901 15.5133 18.2318 15.7224 18.2344C16.8339 18.245 17.9429 18.2556 19.0544 18.2662V17.8877C18.2816 17.9883 17.5088 18.0068 16.7334 17.9513L16.7836 18.3244C18.4325 17.8295 20.0866 17.3214 21.5978 16.4771C21.8122 16.358 21.6216 16.0351 21.4073 16.1489C20.6662 16.5486 19.9013 16.8979 19.1153 17.197C18.885 17.2843 18.975 17.5993 19.2159 17.5622C19.7902 17.4749 20.3433 17.3267 20.8832 17.1149L20.7377 16.7682C20.0866 17.0858 19.4355 17.4034 18.7871 17.7237C18.6257 17.8031 18.6945 18.0995 18.8824 18.0783C20.0496 17.9354 21.2643 17.6099 22.2833 17.0038C22.7703 16.7127 22.9846 16.3289 23.1778 15.8102C23.4134 15.1856 23.7204 14.598 24.0909 14.0449C24.1809 13.9099 24.03 13.7167 23.8765 13.767C23.3605 13.939 22.8417 14.1084 22.3256 14.2804L22.5109 14.598C22.7994 14.2248 23.1355 13.9125 23.5325 13.6558C23.7363 13.5235 23.5537 13.2033 23.3419 13.3276C23.2493 13.3832 23.1567 13.4388 23.064 13.4917C22.8867 13.5976 23.0058 13.9231 23.2096 13.8384L23.686 13.6399C23.8633 13.5658 23.8712 13.2509 23.6357 13.2668C22.323 13.3647 21.0235 13.5738 19.7478 13.8967C19.5123 13.9575 19.6102 14.3228 19.8484 14.2619C21.0923 13.947 22.3547 13.7405 23.633 13.6452L23.5828 13.2721L23.1064 13.4706L23.2519 13.8173C23.3446 13.7617 23.4372 13.7061 23.5298 13.6532L23.3393 13.325C22.9158 13.5976 22.5506 13.9284 22.2409 14.3254C22.1351 14.4604 22.2251 14.7092 22.4262 14.643C22.9423 14.471 23.461 14.3016 23.9771 14.1296L23.7627 13.8517C23.4478 14.3175 23.1805 14.8097 22.9608 15.3285C22.7411 15.8472 22.6168 16.3607 22.0874 16.6756C21.1294 17.2473 19.9781 17.5649 18.8798 17.6998L18.975 18.0545C19.6261 17.7369 20.2772 17.4193 20.9256 17.0991C21.1161 17.0064 20.9812 16.673 20.78 16.7524C20.2401 16.9641 19.687 17.1123 19.1127 17.1996L19.2132 17.5649C20.031 17.2552 20.825 16.8926 21.5952 16.4798L21.4046 16.1516C19.9225 16.98 18.3001 17.4749 16.6804 17.9618C16.4687 18.0254 16.5216 18.3191 16.7307 18.335C17.5062 18.3932 18.279 18.3721 19.0518 18.2715C19.2873 18.2424 19.3032 17.8957 19.0518 17.893C17.9402 17.8825 16.8313 17.8719 15.7197 17.8613L15.77 18.2344L20.3751 17.4114C20.6186 17.369 20.5127 17.0091 20.2745 17.0461C18.3478 17.3373 16.4078 17.5225 14.4626 17.6098C14.2191 17.6204 14.2191 17.9989 14.4626 17.9883V17.9804Z" fill="#5F97A0"/>
<path d="M15.3412 13.7776C14.5234 13.8279 13.7083 13.8728 12.8878 13.8331L12.9381 14.2063C15.0369 13.8437 17.1515 13.5923 19.2767 13.452V13.0736C17.8979 13.2085 16.5163 13.3435 15.1375 13.4811C14.8966 13.505 14.894 13.8834 15.1375 13.8596C16.5163 13.7246 17.8979 13.5897 19.2767 13.452C19.5149 13.4282 19.5229 13.0577 19.2767 13.0736C17.1171 13.2165 14.9681 13.4732 12.8376 13.8411C12.6179 13.8781 12.6841 14.2037 12.8878 14.2143C13.7056 14.254 14.5234 14.209 15.3412 14.1587C15.5847 14.1428 15.5847 13.7643 15.3412 13.7802V13.7776Z" fill="#5F97A0"/>
<path d="M3.73324 13.1291C4.10906 13.2033 4.48487 13.2482 4.86863 13.2588C5.11212 13.2641 5.11212 12.8857 4.86863 12.8804C4.60397 12.8724 4.34196 12.8645 4.0773 12.8565V13.235C5.31062 13.2535 6.54393 13.2218 7.7746 13.1397C8.01809 13.1239 8.01809 12.7454 7.7746 12.7613C6.54393 12.8407 5.31062 12.8724 4.0773 12.8565C3.83381 12.8539 3.83381 13.2297 4.0773 13.235C4.34196 13.243 4.60397 13.2509 4.86863 13.2588V12.8804C4.51928 12.8724 4.17787 12.8327 3.83381 12.7639C3.59562 12.7163 3.4924 13.0815 3.73324 13.1291Z" fill="#5F97A0"/>
<path d="M11.718 16.0034C12.8111 16.6465 13.9412 17.2287 15.1004 17.7475L15.1454 17.4008C14.8304 17.5304 14.5076 17.6178 14.1714 17.6654C14.0762 17.6787 14.0047 17.811 14.0391 17.8983C14.1397 18.1524 14.3673 18.1815 14.6108 18.2212C14.931 18.2741 15.2513 18.3244 15.5715 18.3774V18.0121C15.1375 18.0704 14.7034 18.1286 14.2694 18.1868C13.9121 18.2344 13.523 18.2344 13.2266 18.4621C13.0837 18.5706 13.216 18.777 13.3616 18.7849C14.0576 18.8273 14.7511 18.822 15.4445 18.7638C15.6906 18.7426 15.688 18.4091 15.4445 18.3853C15.1877 18.3588 14.931 18.3535 14.6717 18.3641C14.4282 18.3747 14.4282 18.7558 14.6717 18.7426C14.931 18.7294 15.1877 18.7373 15.4445 18.7638L15.4445 18.3853C14.7511 18.4435 14.055 18.4515 13.3616 18.4065L13.4966 18.7294C13.621 18.6314 13.8115 18.6261 13.9624 18.605C14.1476 18.5785 14.3355 18.5547 14.5208 18.5309C14.9046 18.4779 15.291 18.4276 15.6747 18.3747C15.8573 18.3509 15.8547 18.0386 15.6747 18.0095C15.4365 17.9698 15.201 17.9327 14.9628 17.893C14.8569 17.8745 14.7484 17.8586 14.6425 17.8401C14.5923 17.8322 14.5393 17.8269 14.489 17.8136C14.4626 17.8057 14.3991 17.7713 14.407 17.7951L14.2747 18.028C14.6108 17.9804 14.9337 17.893 15.2486 17.7634C15.3783 17.7104 15.4603 17.4908 15.2936 17.4166C14.1344 16.8979 13.0069 16.3157 11.9112 15.6725C11.6995 15.5481 11.509 15.8763 11.7207 16.0007L11.718 16.0034Z" fill="#5F97A0"/>
<path d="M18.8321 26.2431C18.5833 26.1584 18.3028 26.1002 18.0514 26.2034C17.9217 26.2563 17.8132 26.3357 17.7338 26.4548C17.6835 26.5289 17.657 26.6215 17.6782 26.7089C17.6994 26.7962 17.7629 26.8624 17.8396 26.9021C18.0646 27.0185 18.361 26.9815 18.5727 26.8571C18.6813 26.7936 18.7898 26.7009 18.8427 26.5845C18.885 26.4919 18.893 26.3886 18.8401 26.2986C18.7951 26.2192 18.7183 26.1743 18.6363 26.1451C18.3928 26.0552 18.099 26.0896 17.8793 26.2245C17.8052 26.2695 17.7391 26.3304 17.7179 26.4177C17.6914 26.5236 17.7364 26.6242 17.8105 26.6983C17.8952 26.7856 18.017 26.8465 18.1361 26.865C18.271 26.8862 18.4113 26.873 18.5304 26.7962C18.6363 26.7274 18.713 26.6215 18.7474 26.4998C18.8215 26.2325 18.6627 25.9255 18.3663 25.9043C18.1996 25.8937 18.054 26.0128 17.9799 26.1557C17.9058 26.2986 17.8899 26.4522 17.919 26.6083C17.9746 26.8888 18.2366 27.1085 18.5119 27.1535C18.5727 27.1641 18.6257 27.1588 18.676 27.1191C18.7236 27.082 18.7501 27.0291 18.7501 26.9709C18.7501 26.7221 18.6892 26.4813 18.5807 26.2589C18.5383 26.169 18.4034 26.1372 18.3213 26.1901C18.2287 26.2484 18.2075 26.3542 18.2525 26.4495C18.2578 26.4627 18.2657 26.4733 18.271 26.4866C18.271 26.4892 18.2869 26.521 18.279 26.5024C18.2684 26.4786 18.2869 26.521 18.2869 26.5263C18.2896 26.5368 18.2949 26.5474 18.2975 26.558C18.316 26.6057 18.3293 26.6559 18.3425 26.7062C18.3478 26.73 18.3531 26.7539 18.3584 26.7777C18.3584 26.7883 18.361 26.7989 18.3637 26.8094C18.369 26.8465 18.3637 26.7936 18.3637 26.8147C18.369 26.8677 18.3716 26.918 18.3716 26.9709L18.6124 26.7883C18.5727 26.783 18.5357 26.7724 18.4986 26.7592C18.4907 26.7592 18.4669 26.7433 18.4907 26.7565C18.5145 26.7697 18.4907 26.7565 18.4828 26.7512C18.4642 26.7406 18.4457 26.7327 18.4298 26.7195C18.4192 26.7142 18.4113 26.7062 18.4007 26.7009C18.3795 26.6877 18.4245 26.7221 18.406 26.7062C18.3928 26.693 18.3795 26.6824 18.3663 26.6692C18.361 26.6639 18.3531 26.6559 18.3478 26.648C18.3425 26.6427 18.3266 26.6189 18.3398 26.6401C18.3584 26.6639 18.3319 26.6268 18.3319 26.6268C18.3266 26.6162 18.3187 26.6083 18.3134 26.5977C18.3081 26.5898 18.3054 26.5818 18.3001 26.5739C18.2869 26.5501 18.3107 26.6057 18.3028 26.5818C18.2975 26.5633 18.2922 26.5474 18.2869 26.5289C18.2869 26.521 18.2763 26.5024 18.279 26.4945C18.279 26.4945 18.2816 26.5421 18.279 26.5051C18.279 26.4839 18.279 26.4627 18.279 26.4442C18.279 26.4363 18.279 26.4257 18.279 26.4177C18.279 26.3913 18.271 26.4522 18.279 26.4283C18.2843 26.4098 18.2896 26.3886 18.2949 26.3701C18.2975 26.3595 18.3001 26.3357 18.2896 26.378C18.2896 26.3701 18.2975 26.3595 18.3001 26.3542C18.3054 26.3463 18.3081 26.3383 18.3134 26.3304C18.316 26.3251 18.3372 26.2934 18.3213 26.3172C18.3028 26.3463 18.3478 26.2801 18.3531 26.2854C18.3531 26.2854 18.316 26.3119 18.3478 26.2907C18.3557 26.2854 18.3795 26.2775 18.3398 26.2907C18.3504 26.2854 18.3742 26.2881 18.3293 26.2907C18.3557 26.2907 18.3293 26.2828 18.3187 26.2854C18.3213 26.2854 18.3425 26.2907 18.3451 26.2907C18.361 26.296 18.3637 26.296 18.3478 26.2907C18.3346 26.2854 18.3346 26.2854 18.3478 26.2934C18.361 26.3145 18.3663 26.2775 18.3425 26.2881C18.3425 26.2881 18.361 26.3039 18.3584 26.3039C18.3742 26.3198 18.3504 26.3145 18.3504 26.2907C18.3504 26.2934 18.361 26.3066 18.3637 26.3092C18.3637 26.3119 18.3716 26.3278 18.3743 26.3278C18.3584 26.3172 18.361 26.2907 18.3663 26.3119C18.3663 26.3198 18.3716 26.3251 18.3716 26.3331C18.3716 26.3383 18.3716 26.3436 18.3743 26.3489C18.3769 26.3648 18.3743 26.3569 18.3716 26.3251C18.369 26.3383 18.3716 26.3569 18.3716 26.3701C18.3716 26.3754 18.369 26.3886 18.3716 26.3939C18.3637 26.3675 18.3795 26.3569 18.3716 26.378C18.3663 26.3939 18.3637 26.4072 18.3584 26.423C18.3504 26.4548 18.3584 26.4125 18.3637 26.4098C18.361 26.4098 18.3504 26.4363 18.3478 26.4389C18.3478 26.4416 18.3346 26.4574 18.3346 26.4574C18.3346 26.4442 18.361 26.4283 18.3425 26.4469C18.3372 26.4522 18.3107 26.4707 18.3107 26.4786C18.3134 26.4627 18.3425 26.4574 18.3213 26.4707C18.3134 26.476 18.3054 26.4786 18.3001 26.4839C18.2684 26.5051 18.3107 26.4786 18.3107 26.4813C18.3107 26.4866 18.2816 26.4918 18.2737 26.4918C18.2657 26.4918 18.2578 26.4945 18.2499 26.4971C18.2155 26.5051 18.2578 26.4945 18.2631 26.4971C18.2525 26.4919 18.2234 26.4971 18.2128 26.4971H18.1863C18.1863 26.5024 18.2287 26.5051 18.1916 26.4971C18.1731 26.4919 18.1546 26.4866 18.1361 26.4813C18.1017 26.4707 18.144 26.4813 18.144 26.4866C18.144 26.4839 18.1255 26.476 18.1202 26.476C18.1122 26.4707 18.1043 26.468 18.0964 26.4627C18.0964 26.4627 18.0567 26.4363 18.0831 26.4548C18.1069 26.4707 18.0646 26.4336 18.0593 26.431C18.0408 26.4151 18.0752 26.4574 18.0646 26.4363C18.0514 26.4125 18.0567 26.431 18.0752 26.4892L18.0593 26.5474C18.0514 26.566 18.0408 26.5633 18.0302 26.5765C18.0355 26.5686 18.0514 26.5633 18.062 26.558C18.0778 26.5474 18.0964 26.5395 18.1149 26.5315C18.1202 26.5289 18.1493 26.5183 18.1255 26.5263C18.1017 26.5342 18.1308 26.5263 18.1361 26.5236C18.1599 26.5157 18.1837 26.5077 18.2075 26.5024C18.226 26.4971 18.2472 26.4945 18.2657 26.4918C18.2922 26.4866 18.2313 26.4918 18.2604 26.4918C18.271 26.4918 18.279 26.4918 18.2896 26.4918C18.3107 26.4918 18.3346 26.4918 18.3557 26.4918C18.3663 26.4918 18.3743 26.4918 18.3848 26.4918C18.3901 26.4918 18.4325 26.4971 18.4034 26.4918C18.3769 26.4866 18.4087 26.4918 18.414 26.4918C18.4245 26.4918 18.4325 26.4945 18.4431 26.4971C18.4642 26.5024 18.4854 26.5104 18.5066 26.5157C18.533 26.5236 18.4986 26.5104 18.4986 26.5104C18.5039 26.5104 18.5172 26.5263 18.5225 26.5236C18.5198 26.5236 18.4907 26.4919 18.5145 26.5183C18.5013 26.5024 18.4907 26.4892 18.4881 26.468C18.4854 26.4522 18.4907 26.4389 18.4933 26.4257L18.4986 26.4177C18.4986 26.4177 18.4907 26.4363 18.4854 26.4442C18.4801 26.4574 18.4801 26.4707 18.4881 26.4442C18.4881 26.4495 18.4722 26.4627 18.4695 26.4654C18.4563 26.4786 18.4431 26.4919 18.4298 26.5024C18.4272 26.5051 18.4113 26.5157 18.4087 26.521L18.4245 26.5077C18.4245 26.5077 18.4113 26.5183 18.4034 26.5236C18.3875 26.5342 18.3742 26.5421 18.3584 26.5527C18.3478 26.558 18.316 26.566 18.3107 26.5765C18.3107 26.5739 18.3531 26.5607 18.3187 26.5739C18.3107 26.5765 18.3028 26.5792 18.2922 26.5818C18.271 26.5898 18.2499 26.5951 18.226 26.6004C18.2181 26.6004 18.2075 26.603 18.1996 26.6057C18.1758 26.6109 18.1996 26.6136 18.2102 26.6057C18.2022 26.6136 18.1678 26.6083 18.1572 26.6083C18.1387 26.6083 18.1202 26.6083 18.1043 26.6083C18.1043 26.6083 18.0805 26.6083 18.0778 26.6083C18.1043 26.6109 18.1096 26.6136 18.0937 26.6083C18.0858 26.6083 18.0805 26.6083 18.0752 26.6057C18.054 26.6004 18.0328 26.5951 18.009 26.5898C17.9799 26.5818 18.017 26.5951 18.017 26.5951C18.0117 26.5951 17.9773 26.5686 18.0037 26.5898L18.0117 26.5977C18.0223 26.6242 18.0434 26.6533 18.0328 26.6851C18.0223 26.7168 18.0249 26.6983 18.0328 26.6877C18.0355 26.6824 18.0461 26.6559 18.054 26.6533C18.0434 26.6559 18.0328 26.6798 18.0487 26.6612C18.0567 26.6506 18.0672 26.6427 18.0752 26.6321C18.0778 26.6295 18.0937 26.6162 18.0937 26.6136C18.062 26.6374 18.0937 26.6215 18.0937 26.6136C18.1122 26.6004 18.1308 26.5898 18.1519 26.5792C18.1572 26.5765 18.1837 26.5607 18.1599 26.5739C18.1361 26.5871 18.1678 26.5712 18.1758 26.5686C18.1969 26.5607 18.2181 26.5554 18.2419 26.5501C18.2499 26.5501 18.2604 26.5474 18.2684 26.5448C18.3134 26.5342 18.226 26.5448 18.271 26.5448C18.324 26.5421 18.3743 26.5448 18.4298 26.5448C18.4007 26.5395 18.4589 26.5448 18.4298 26.5448C18.4431 26.5474 18.4589 26.5501 18.4722 26.5527C18.5013 26.558 18.5278 26.566 18.5542 26.5712C18.6098 26.5871 18.6627 26.603 18.7183 26.6215C18.8109 26.6533 18.93 26.5845 18.9512 26.4892C18.975 26.3833 18.9195 26.2907 18.8189 26.2563L18.8321 26.2431Z" fill="#5F97A0"/>
<path d="M7.62639 25.9996C7.47289 26.0605 7.33527 26.1663 7.26381 26.3198C7.18441 26.4919 7.16324 26.7142 7.31145 26.8571C7.56817 27.1032 7.99692 26.9709 8.16101 26.6851C8.2457 26.5368 8.25629 26.3542 8.17689 26.1981C8.1319 26.1107 8.0472 26.0419 7.95457 26.0155C7.84606 25.9864 7.7402 26.0102 7.63963 26.0525C7.48877 26.116 7.36703 26.2298 7.27175 26.3595C7.16588 26.5024 7.06267 26.73 7.20294 26.8836C7.2744 26.9629 7.39879 26.9868 7.49936 26.955C7.61051 26.9206 7.68727 26.8227 7.71638 26.7115C7.77196 26.5183 7.74284 26.2854 7.69256 26.0949C7.66874 26.0022 7.57611 25.9467 7.48348 25.9599C7.38555 25.9731 7.32468 26.0499 7.31939 26.1451C7.29822 26.423 7.37761 26.6983 7.48083 26.955C7.50994 27.0265 7.53906 27.0979 7.57081 27.1694C7.60257 27.2435 7.63698 27.3097 7.70844 27.3546C7.86459 27.4552 8.04456 27.3361 8.11337 27.1906C8.17689 27.0556 8.20071 26.8968 8.20865 26.7512C8.21659 26.6242 8.20865 26.4839 8.16895 26.3622C8.12925 26.2404 8.05514 26.116 7.93605 26.0525C7.80107 25.9811 7.63963 25.9916 7.50994 26.071C7.29292 26.206 7.1156 26.5183 7.18441 26.7777C7.22676 26.9312 7.36173 27.0344 7.51788 27.0423C7.6608 27.0476 7.79842 26.9735 7.87782 26.8597C7.95722 26.7459 7.97839 26.603 7.96251 26.4707C7.94663 26.3384 7.90958 26.1954 7.80901 26.0949C7.75078 26.0366 7.67403 25.9996 7.59199 25.9943C7.50994 25.989 7.43319 26.0181 7.35644 26.0525C7.23999 26.1081 7.13148 26.1822 7.05473 26.2854C6.9621 26.4125 6.94886 26.5792 7.00444 26.7221C7.06796 26.8783 7.19235 26.9947 7.34056 27.0688C7.62375 27.2117 7.94663 27.2805 8.26423 27.2805C8.36215 27.2805 8.45743 27.1932 8.45478 27.09C8.45213 26.9868 8.37274 26.8994 8.26423 26.8994C8.21659 26.8994 8.16895 26.8994 8.12395 26.8941C8.10014 26.8941 8.07632 26.8915 8.0525 26.8888C8.04985 26.8888 8.0075 26.8835 8.02868 26.8862C8.04456 26.8862 7.99427 26.8809 7.99427 26.8809C7.89899 26.865 7.80372 26.8412 7.71109 26.8121C7.68991 26.8042 7.66609 26.7962 7.64492 26.7883C7.63169 26.783 7.6211 26.7777 7.60787 26.775C7.60787 26.775 7.57611 26.7618 7.59463 26.7697C7.61316 26.7777 7.57875 26.7618 7.57611 26.7618C7.56817 26.7592 7.56023 26.7539 7.55229 26.7512C7.53112 26.7406 7.50994 26.73 7.48877 26.7168C7.4676 26.7036 7.44907 26.693 7.43055 26.6771C7.45436 26.6956 7.41467 26.6612 7.40937 26.6559C7.40143 26.648 7.37497 26.6083 7.39085 26.6348C7.38555 26.6242 7.35644 26.5713 7.36967 26.6057C7.36173 26.5871 7.35909 26.5686 7.35379 26.5501C7.3485 26.5289 7.35379 26.5554 7.35379 26.558C7.35379 26.5474 7.35379 26.5368 7.35379 26.5236C7.34585 26.5607 7.35379 26.5315 7.35379 26.5236C7.35379 26.521 7.36173 26.4945 7.35379 26.5157C7.34585 26.5421 7.38291 26.4707 7.36703 26.4919C7.35379 26.5077 7.3882 26.4707 7.39349 26.4654C7.40143 26.4574 7.40937 26.4522 7.41731 26.4442C7.3882 26.4627 7.41202 26.4495 7.41731 26.4442C7.45172 26.423 7.48612 26.4019 7.52318 26.3833C7.53112 26.3807 7.57875 26.3569 7.55229 26.3701C7.55229 26.3701 7.58405 26.3595 7.56288 26.3648C7.5417 26.3701 7.59199 26.3754 7.56288 26.3648C7.55229 26.3622 7.5417 26.3595 7.53112 26.3542C7.56023 26.3675 7.53112 26.3542 7.52582 26.3489C7.53376 26.3542 7.53906 26.3622 7.547 26.3701C7.53641 26.3595 7.53376 26.3489 7.54435 26.3701C7.54964 26.378 7.55494 26.3886 7.56023 26.3966C7.56023 26.3966 7.54964 26.3648 7.55758 26.386C7.56288 26.4019 7.56817 26.4204 7.57346 26.4363C7.57875 26.4574 7.58405 26.4813 7.58669 26.5024C7.5814 26.4654 7.58669 26.5289 7.58669 26.5395C7.58669 26.5474 7.58669 26.558 7.58669 26.566C7.58669 26.5713 7.58405 26.6083 7.58669 26.5845C7.58934 26.5633 7.58669 26.5898 7.58669 26.5924C7.58405 26.603 7.5814 26.6136 7.57876 26.6242C7.57876 26.6268 7.56552 26.6506 7.57611 26.6321C7.58669 26.6109 7.56817 26.6427 7.56552 26.648C7.55493 26.6692 7.57082 26.6427 7.57346 26.6401C7.57346 26.6401 7.53906 26.6692 7.56023 26.6533C7.5814 26.6374 7.55494 26.6586 7.54964 26.6586C7.53376 26.6586 7.55758 26.6586 7.56288 26.6533C7.55229 26.6559 7.5073 26.6665 7.53376 26.6639C7.56288 26.6586 7.53376 26.6639 7.52582 26.6639C7.50465 26.6586 7.5417 26.6692 7.5417 26.6665C7.5417 26.6665 7.51788 26.6612 7.51524 26.6586C7.52053 26.6665 7.54435 26.6718 7.55229 26.6798C7.52582 26.6559 7.55229 26.6798 7.55229 26.6851V26.6798C7.55229 26.6798 7.5417 26.6718 7.55229 26.693C7.55229 26.6851 7.54964 26.6771 7.547 26.6718C7.53906 26.648 7.547 26.7036 7.547 26.6771C7.547 26.6665 7.55493 26.6162 7.547 26.6559C7.55229 26.6348 7.55494 26.6136 7.56288 26.5924C7.56552 26.5818 7.57082 26.5713 7.57346 26.5607C7.57346 26.5633 7.56023 26.5898 7.57081 26.5686C7.57875 26.5501 7.58934 26.5342 7.59728 26.5157C7.60522 26.4971 7.61845 26.4813 7.62904 26.4654C7.61051 26.4839 7.64492 26.4416 7.62904 26.4654C7.63698 26.4574 7.64492 26.4469 7.65286 26.4389C7.66609 26.4257 7.68197 26.4098 7.69521 26.3992C7.66345 26.423 7.71638 26.3886 7.72432 26.386C7.69785 26.4019 7.72432 26.3913 7.73755 26.386C7.70579 26.3992 7.71638 26.3833 7.73226 26.386C7.76931 26.3939 7.71109 26.3754 7.7349 26.386C7.74284 26.386 7.75078 26.3913 7.75872 26.3913C7.72961 26.386 7.7402 26.3833 7.75343 26.3913C7.76402 26.3992 7.77196 26.4098 7.75078 26.386C7.75608 26.3913 7.76137 26.3939 7.76666 26.4019C7.76931 26.4072 7.77725 26.4125 7.7799 26.4177C7.75343 26.3886 7.77196 26.4045 7.7746 26.4151C7.7799 26.423 7.78519 26.4336 7.79048 26.4416C7.80107 26.4601 7.79578 26.4522 7.79048 26.4389C7.80372 26.4733 7.8143 26.5077 7.8196 26.5421C7.8196 26.5527 7.82224 26.5633 7.82489 26.5713C7.82489 26.5633 7.82224 26.5342 7.82489 26.5765C7.82489 26.603 7.83018 26.6295 7.83018 26.6559C7.83018 26.7036 7.83018 26.7486 7.82489 26.7962C7.82489 26.8068 7.82489 26.8147 7.82224 26.8253C7.8196 26.8571 7.82754 26.8015 7.82224 26.8333C7.81695 26.8597 7.81166 26.8862 7.80636 26.9127C7.80107 26.9391 7.79313 26.9629 7.78519 26.9894C7.78254 27.0026 7.77725 27.0132 7.77196 27.0265C7.76402 27.0582 7.79048 26.9921 7.76931 27.0318C7.76931 27.0344 7.75343 27.0556 7.76666 27.0371C7.7746 27.0265 7.7746 27.0265 7.76137 27.0397L7.77725 27.0265C7.81166 27.0106 7.80636 27.0185 7.85929 27.0344C7.8937 27.0291 7.91752 27.0397 7.9334 27.0635L7.92546 27.0503C7.90958 27.0026 7.88311 26.9524 7.86194 26.9074C7.84606 26.8703 7.854 26.8888 7.85665 26.8968C7.85136 26.8809 7.84342 26.865 7.83812 26.8491C7.82754 26.8253 7.81695 26.7989 7.80901 26.7724C7.76931 26.6692 7.7349 26.5633 7.71373 26.4548C7.70844 26.4283 7.70315 26.4019 7.7005 26.3754C7.70579 26.4045 7.7005 26.3701 7.7005 26.3675C7.7005 26.3542 7.69785 26.341 7.69785 26.3278C7.69256 26.2669 7.69256 26.2087 7.69785 26.1478L7.32468 26.1981C7.33262 26.2245 7.33791 26.251 7.34321 26.2775C7.34585 26.2934 7.3485 26.3092 7.35115 26.3278C7.35644 26.3595 7.35115 26.3039 7.35115 26.3357C7.35644 26.3913 7.35909 26.4495 7.35909 26.5051C7.35909 26.5342 7.35644 26.5633 7.35379 26.5924C7.35379 26.6215 7.36173 26.5633 7.35379 26.5898C7.35115 26.6004 7.3485 26.6109 7.34585 26.6215C7.34056 26.648 7.35909 26.5977 7.34585 26.6215C7.33527 26.6401 7.35644 26.6109 7.36173 26.6083C7.37232 26.6004 7.41467 26.5924 7.38291 26.5977H7.40937C7.39349 26.5924 7.39349 26.5951 7.40937 26.5977C7.4279 26.603 7.44113 26.6057 7.45701 26.6189C7.48348 26.6401 7.52582 26.7036 7.50465 26.7195V26.7248C7.50465 26.7248 7.50994 26.7062 7.51259 26.6983C7.51259 26.693 7.52582 26.6612 7.51788 26.6824C7.5073 26.7089 7.52847 26.6586 7.52847 26.6612C7.53376 26.6507 7.53906 26.6427 7.54435 26.6321C7.55758 26.6109 7.57082 26.5898 7.58405 26.5713C7.5867 26.566 7.60787 26.5395 7.59463 26.558C7.5814 26.5765 7.60257 26.5501 7.60522 26.5448C7.6211 26.5263 7.63963 26.5077 7.65551 26.4919C7.66345 26.4839 7.71108 26.4469 7.67933 26.468C7.7005 26.4522 7.72432 26.4363 7.74814 26.423C7.76666 26.4125 7.78784 26.3992 7.80901 26.3913C7.7799 26.4045 7.84342 26.3833 7.85136 26.3833C7.83283 26.3833 7.83283 26.3807 7.854 26.3833C7.82489 26.3754 7.854 26.3886 7.854 26.3833C7.854 26.3728 7.82489 26.378 7.85136 26.3833C7.83283 26.3701 7.83018 26.3675 7.84077 26.378C7.85135 26.3886 7.84871 26.386 7.83283 26.3675C7.83548 26.3754 7.84341 26.386 7.84606 26.3939C7.84077 26.386 7.83548 26.3595 7.84342 26.3913C7.84342 26.4019 7.84871 26.4098 7.84871 26.4204C7.84871 26.4125 7.84871 26.3807 7.84606 26.4151C7.84606 26.4177 7.84606 26.4416 7.84606 26.4442C7.85665 26.4283 7.854 26.4151 7.84606 26.4363C7.84606 26.4442 7.84077 26.4548 7.83812 26.4627C7.82754 26.5051 7.85665 26.4336 7.83812 26.4707C7.83018 26.4866 7.81695 26.5024 7.80901 26.521C7.82489 26.4892 7.8196 26.5077 7.81166 26.5157C7.80372 26.5236 7.79842 26.5289 7.79313 26.5368C7.78784 26.5448 7.7799 26.5501 7.77196 26.5554C7.74814 26.5792 7.77196 26.5554 7.77725 26.5527C7.75608 26.566 7.7349 26.5765 7.71373 26.5898C7.74284 26.5712 7.73226 26.5845 7.71902 26.5898C7.71108 26.5924 7.7005 26.5951 7.69256 26.5977C7.68462 26.6004 7.67403 26.603 7.66345 26.603C7.62375 26.6136 7.67139 26.603 7.67139 26.603C7.66609 26.6083 7.59464 26.603 7.62639 26.603C7.65286 26.603 7.62375 26.603 7.61581 26.6004C7.60257 26.5977 7.59199 26.5924 7.57876 26.5898C7.58934 26.5924 7.61316 26.603 7.57876 26.5898C7.547 26.5712 7.58669 26.6109 7.56817 26.5818C7.5814 26.5845 7.5814 26.603 7.56817 26.5818C7.57346 26.6004 7.57611 26.6004 7.57081 26.5871C7.56817 26.5739 7.56817 26.5765 7.57081 26.5924C7.57081 26.5792 7.57081 26.5686 7.57081 26.5554C7.57081 26.5792 7.56817 26.5686 7.57081 26.5501C7.57611 26.5263 7.5814 26.5051 7.59199 26.4839C7.57611 26.521 7.59199 26.4892 7.59463 26.4813C7.59993 26.4707 7.60787 26.4601 7.61581 26.4469C7.61845 26.4416 7.63433 26.4177 7.61581 26.4469C7.62639 26.4336 7.63698 26.423 7.64757 26.4125C7.65551 26.4045 7.66345 26.3992 7.67139 26.3913C7.7005 26.3648 7.64492 26.4019 7.68197 26.3833C7.68991 26.378 7.7005 26.3728 7.70844 26.3675C7.71638 26.3622 7.75872 26.3463 7.71902 26.3622C7.81166 26.3251 7.88576 26.2325 7.85136 26.1293C7.82224 26.0393 7.71638 25.9572 7.61845 25.9969L7.62639 25.9996Z" fill="#5F97A0"/>
</svg>
