<svg width="32" height="32" viewBox="0 0 32 32" fill="none" xmlns="http://www.w3.org/2000/svg">
<path d="M16.028 5.9936C16.4454 5.68586 16.8598 5.31718 17.2254 4.95155C17.4509 4.72608 17.5545 4.44576 17.3656 4.15935C16.9725 3.55606 15.8147 3.41286 15.2632 3.83942C14.8488 4.15935 14.9494 4.63162 14.8366 5.08257C14.7056 5.60664 14.3156 5.97836 13.8829 6.27086C13.2035 6.734 12.1949 7.21236 12.1889 8.17824C12.1889 8.5652 12.3412 8.97043 12.4448 9.33607C12.6063 9.8967 12.783 10.4451 13.0115 10.9844C13.2126 11.4598 13.4503 11.9199 13.6422 12.3982C13.8342 12.8766 13.9957 13.361 14.212 13.8272C14.4527 14.3452 14.7117 14.851 14.992 15.3476C15.2998 15.89 15.5648 16.4598 15.9061 16.9838C16.2077 17.45 16.6038 17.8339 16.9847 18.2331C17.3656 18.6322 17.7312 19.1075 18.1608 19.4884C18.9865 20.2227 19.992 20.7803 21.0645 21.0362C22.137 21.2922 23.1547 21.5055 24.215 21.1825C25.0743 20.9204 25.7202 20.2836 26.1529 19.5067C26.68 18.5621 27.073 17.5292 27.2559 16.4598C27.3473 15.9326 27.3595 15.3964 27.3899 14.8632C27.4204 14.2904 27.5088 13.7206 27.5423 13.1447C27.6063 11.9473 27.5423 10.7681 27.3808 9.58287C27.3016 8.99481 27.3077 8.40066 27.2589 7.80956C27.2163 7.2733 27.1492 6.734 27.0791 6.20079C26.9634 5.33241 26.6282 4.50365 25.9061 3.9674C25.184 3.43114 24.3613 3.26965 23.5264 3.20871C22.9231 3.16606 22.332 3.23004 21.747 3.37325C21.4941 3.43418 21.2473 3.51036 20.9914 3.55911C20.8025 3.59567 20.6197 3.6688 20.5709 3.45247C20.5283 3.26356 20.577 3.06551 20.4582 2.89488C20.3394 2.72425 20.1505 2.65113 19.9494 2.66941C19.5929 2.69988 19.276 2.98933 19.0871 3.2727C18.8342 3.65052 18.7245 4.12583 18.8494 4.56764C18.9652 4.97288 19.3948 5.37202 19.7879 5.0003C19.9097 4.88452 19.9554 4.72303 20.1108 4.64381C20.3241 4.53717 20.6319 4.57069 20.8573 4.60115C21.2961 4.66209 21.488 3.98872 21.0432 3.92779C20.6441 3.87294 20.2388 3.84247 19.8579 3.99786C19.7452 4.04357 19.6386 4.10146 19.5472 4.18373C19.4893 4.23552 19.4009 4.3117 19.3735 4.38482C19.2577 4.51279 19.3156 4.53108 19.5411 4.43967C19.5106 4.3574 19.4954 4.27209 19.4954 4.18373C19.4954 4.01005 19.5593 3.83638 19.6538 3.69013C19.7147 3.59567 19.8427 3.5195 19.8915 3.43114L19.9707 3.38239C19.8793 3.26051 19.8458 3.26356 19.8732 3.39457C19.861 3.44028 19.8854 3.54997 19.8915 3.58958C19.928 3.80896 20.0194 4.01005 20.2022 4.14412C20.7964 4.57678 21.8141 4.03443 22.4448 3.93693C23.2522 3.812 24.017 3.88513 24.7604 4.14412C25.5039 4.4031 26.0493 4.92717 26.2839 5.71937C26.4088 6.1368 26.4332 6.57251 26.4819 7.00213C26.5368 7.50182 26.5855 7.99542 26.613 8.49512C26.6648 9.51583 26.8628 10.5152 26.8689 11.539C26.875 12.5628 26.8049 13.4829 26.7257 14.464C26.6465 15.4451 26.6343 16.344 26.3601 17.2733C26.1224 18.0899 25.7537 19.0039 25.2175 19.6712C24.7452 20.2593 24.0688 20.6036 23.3162 20.6554C22.7982 20.6919 22.2894 20.5822 21.7866 20.4756C21.2839 20.369 20.7476 20.2562 20.2662 20.0307C19.4009 19.6255 18.6483 19.0314 18.0207 18.3184C17.393 17.6054 16.6739 16.9351 16.1956 16.0667C15.7172 15.1983 15.2083 14.3117 14.794 13.3976C14.4283 12.5871 14.1206 11.7492 13.758 10.9357C13.5265 10.4147 13.3406 9.88146 13.1821 9.33302C13.0816 8.98262 12.8927 8.56519 12.8957 8.19347C12.8988 7.78823 13.3132 7.47135 13.6392 7.25502C14.0261 6.99908 14.4314 6.77056 14.7787 6.45368C15.1048 6.15813 15.3546 5.78945 15.4887 5.36898C15.6105 4.99116 15.4521 4.3574 15.9548 4.29342C16.1438 4.26904 16.3479 4.3056 16.5246 4.37264C16.5886 4.39701 16.6678 4.461 16.7318 4.47623C16.7531 4.49147 16.7714 4.5067 16.7897 4.52498C16.8263 4.39092 16.8293 4.34826 16.7958 4.39092C16.6831 4.41529 16.4515 4.7017 16.3631 4.78092C16.1377 4.98202 15.9274 5.20444 15.6867 5.38117C15.3302 5.64625 15.6776 6.25258 16.0402 5.98446L16.028 5.9936Z" fill="#5F97A0"/>
<path d="M23.4533 21.7766C23.755 23.7846 24.2638 26.3775 22.6733 28.0167C21.9085 28.8059 20.7202 28.7419 19.7696 28.3306C18.8768 27.9405 18.2248 26.9716 17.7739 26.1459C17.5331 25.7041 17.2863 25.2623 17.0792 24.8053C16.8415 24.2812 16.68 23.7236 16.4576 23.1935C16.0463 22.2123 15.4612 21.2404 14.8183 20.3933C14.2333 19.6225 13.5843 18.8638 12.8165 18.2696C12.4478 17.9863 12.067 17.6785 11.6313 17.5109C11.1529 17.3281 10.6197 17.3708 10.1383 17.5231C8.18825 18.1417 6.73792 20.439 7.75254 22.4013C7.95973 22.8004 8.56302 22.447 8.35583 22.0478C7.87746 21.1246 8.17301 20.0033 8.80677 19.2294C9.35827 18.556 10.4887 17.8217 11.3906 18.163C11.8263 18.3275 12.2437 18.681 12.5941 18.9826C13.0024 19.33 13.365 19.7261 13.7123 20.1313C14.4253 20.9601 15.0133 21.8833 15.5252 22.8491C16.0371 23.815 16.29 24.8388 16.7927 25.7864C17.2589 26.6608 17.7403 27.4835 18.4198 28.2148C19.0993 28.946 20.0042 29.2507 20.9548 29.3238C21.9055 29.397 22.7556 29.0466 23.3619 28.3001C24.0444 27.4622 24.3369 26.3866 24.4527 25.3324C24.5167 24.7321 24.4832 24.1685 24.3826 23.5743C24.2729 22.9223 24.2211 22.258 24.1236 21.5999C24.0566 21.1581 23.3832 21.344 23.4503 21.7858L23.4533 21.7766Z" fill="#5F97A0"/>
<path d="M12.2193 23.5317C11.6343 22.9497 10.7659 22.6328 9.9646 22.4896C9.51975 22.4104 9.0749 22.3982 8.627 22.3647C8.17911 22.3312 7.75254 22.2093 7.31378 22.3342C5.8147 22.7669 4.96461 24.726 5.48868 26.149C5.75986 26.8833 6.33877 27.45 6.91159 27.9588C7.56363 28.5377 8.27052 28.8912 9.16022 28.8942C9.57155 28.8942 9.94327 28.8242 10.315 28.6444C10.6867 28.4646 11.0676 28.3366 11.4363 28.163C12.134 27.8278 12.4905 27.0387 12.591 26.3074C12.7129 25.4299 12.5575 24.4153 12.0609 23.6688C11.5642 22.9223 10.7964 22.5841 9.96156 22.5292C9.51366 22.4988 9.51366 23.1995 9.96156 23.227C10.5405 23.2635 11.1255 23.5286 11.4576 24.0192C11.8232 24.5585 11.9481 25.2562 11.9299 25.8991C11.9116 26.4537 11.7318 27.1941 11.2138 27.4927C10.9762 27.6298 10.702 27.6937 10.4521 27.8034C10.12 27.9466 9.83358 28.1477 9.46491 28.1813C8.75193 28.2483 8.13036 28.0563 7.57887 27.6054C7.10964 27.2215 6.60995 26.7675 6.30525 26.2373C5.69892 25.1831 6.20775 23.5835 7.32292 23.0746C7.6977 22.904 8.06637 23.0015 8.45942 23.0442C8.85248 23.0868 9.26076 23.0807 9.65686 23.1386C10.379 23.2452 11.2047 23.4951 11.7318 24.0222C12.0517 24.3391 12.5453 23.8455 12.2254 23.5286L12.2193 23.5317Z" fill="#5F97A0"/>
<path d="M8.7824 25.9722L8.0359 25.89C7.8927 25.8747 7.75254 25.8595 7.60933 25.8443C7.56972 25.8412 7.3473 25.8138 7.36558 25.8351C7.29855 25.759 7.46004 25.3598 7.49965 25.2714C7.57582 25.0947 7.68551 24.9302 7.80738 24.787C8.06028 24.4914 8.3863 24.2599 8.73974 24.0923C8.80982 24.0588 9.25162 23.8455 9.29733 23.9003C9.25162 23.8455 9.16326 23.9643 9.11451 23.9887C8.99568 24.0496 8.87076 24.0618 8.73974 24.0405L8.83724 24.4061C9.11451 24.0588 9.46186 23.8211 9.88843 23.6992L9.61116 23.489C9.63249 23.7906 9.60202 24.0831 9.50756 24.3726C9.46186 24.5128 9.40092 24.6468 9.3278 24.7748C9.27905 24.8571 9.18155 25.0734 9.09928 25.0978L9.26686 25.1191C9.081 25.0338 9.11146 24.7626 9.23029 24.6316C9.37959 24.464 9.64468 24.4884 9.82749 24.5828C10.2754 24.8144 10.3394 25.4482 10.2571 25.89C10.1748 26.3318 9.93413 26.7401 9.52889 26.9351C9.12365 27.1301 8.65747 27.0844 8.33755 26.7858L8.12426 27.1514C8.54474 27.2367 8.96826 27.3586 9.35217 27.5566C9.50756 27.6359 9.65991 27.7242 9.77874 27.8552C9.84882 27.9314 9.86101 28.0198 9.9189 28.0959C9.90976 28.1904 9.92804 28.2056 9.97679 28.1355C9.92499 28.1142 9.87319 28.0929 9.82444 28.0655C9.09623 27.712 8.46247 27.1697 7.9841 26.5176L7.6398 26.7827C7.88965 27.0051 8.30708 27.1118 8.50513 27.3799C8.56607 27.4622 8.64224 27.6419 8.57521 27.7394C8.45333 27.9192 8.11512 27.6206 8.00848 27.5384C7.40824 27.0691 6.90245 26.4963 6.50026 25.8504L6.15595 26.1154C6.48197 26.3897 6.78971 26.6822 7.07308 27.0021C7.33816 27.3007 7.77692 27.7273 7.63371 28.163L8.06333 28.2209C8.06637 27.5018 8.36497 26.798 8.91037 26.3196C8.94693 26.2861 8.98654 26.2526 9.02615 26.2251L8.99873 26.2465C9.03529 26.283 9.03529 26.4201 9.04443 26.475C9.06881 26.6456 9.09014 26.8437 9.03225 27.0112C9.03225 27.0082 8.86162 27.2733 8.98654 27.2306C8.99264 27.2306 9.05662 27.0996 9.081 27.0813C9.18154 27.0082 9.32475 26.9991 9.41616 27.0874L9.46186 26.7431C9.07795 26.9107 8.60263 26.7766 8.35583 26.4415L8.01153 26.7065C8.51732 27.3586 9.20897 27.9558 10.0621 27.517C10.9152 27.0783 11.5825 26.3592 12.131 25.6401C12.2894 25.4329 11.9634 25.2196 11.7867 25.375C11.1803 25.9113 10.6502 26.5207 10.1931 27.191C10.1078 27.319 10.2175 27.5414 10.382 27.5201C10.9823 27.4409 11.3753 26.9564 11.4942 26.3836C11.6404 25.6797 11.3723 24.787 11.8446 24.1746L11.5002 23.9095C11.0006 24.9668 10.5039 26.024 10.0042 27.0844C9.90671 27.2916 10.1017 27.4683 10.3028 27.383C10.9213 27.1209 11.1834 26.4536 11.2352 25.826C11.2992 25.0307 11.0432 24.1471 11.549 23.4494L11.1407 23.3397C11.0402 24.4732 9.87624 25.1557 9.28819 26.0301C9.15108 26.2343 9.46796 26.4811 9.63249 26.2952C10.3272 25.5061 10.3059 24.269 9.57155 23.5134C9.40397 23.3397 9.08709 23.5682 9.22725 23.7785C9.7239 24.5128 10.1322 25.2989 10.4399 26.1307L10.7598 25.8839C10.1962 25.5426 9.9646 24.8205 10.2876 24.2324C10.3698 24.0862 10.4795 23.9521 10.6105 23.8455C10.6563 23.8089 10.7111 23.7663 10.7629 23.7419C10.9061 23.6779 10.9244 23.6749 10.9731 23.8211C11.0828 24.1441 10.772 24.6316 10.6197 24.8906C10.2845 25.4634 9.74522 26.2038 9.06576 26.3836C8.3863 26.5633 7.93535 25.9113 8.06637 25.3019C8.21262 24.6164 8.93474 24.2477 9.5685 24.1471C9.94327 24.0862 10.3546 24.0862 10.7324 24.1319C11.1438 24.1806 11.0006 24.854 10.964 25.1465C10.897 25.695 10.7477 26.4079 10.2906 26.7797C9.99203 27.0234 9.60202 27.0417 9.24248 26.9473C8.31317 26.7096 7.45394 25.9174 6.9969 25.0917C6.85979 24.8449 6.48502 25.0643 6.61909 25.3111C6.83237 25.7041 7.09441 26.1246 7.50269 26.3379C7.91098 26.5512 8.40763 26.478 8.79154 26.2099C9.17545 25.9418 9.60811 25.4969 9.70866 25.046C9.80921 24.595 9.49233 24.1685 9.08404 24.0192C8.18825 23.6931 7.13097 24.4366 6.91464 25.3111C6.81104 25.7254 7.01519 26.1551 7.49355 26.0972C7.97192 26.0393 8.34669 25.6005 8.56302 25.2136C8.74584 24.8814 8.96826 24.3086 8.76716 23.9399C8.51427 23.4799 7.82567 23.9186 7.50574 24.0801C7.14011 24.266 6.72878 24.592 6.86284 25.0582C6.98776 25.4908 7.4966 25.5396 7.82567 25.3111C8.15473 25.0825 8.49294 24.5767 8.41372 24.1624C8.31927 23.6566 7.81043 23.5652 7.41129 23.7937C7.17058 23.9308 6.9512 24.141 6.75924 24.3421C6.60995 24.4975 6.44541 24.6895 6.50635 24.9211C6.61299 25.3293 7.17363 25.3598 7.48746 25.2136C7.89879 25.0216 8.26137 24.4823 8.07856 24.0222C7.92012 23.6231 7.37777 23.5895 7.07308 23.8394C6.64041 24.1989 6.78667 24.8571 7.01823 25.2867C7.27417 25.762 7.6977 26.1063 8.19434 26.3044C8.45638 26.4079 8.56911 25.9844 8.31013 25.8839C7.85309 25.7041 7.46918 25.3263 7.3016 24.8601C7.22542 24.6499 7.15839 24.2873 7.393 24.1502C7.45394 24.1136 7.58191 24.0892 7.64285 24.141C7.75863 24.2355 7.65504 24.464 7.5941 24.5615C7.48746 24.7291 7.28941 24.8906 7.07917 24.8632C6.85065 24.8327 7.06089 24.6621 7.14316 24.5798C7.25589 24.4671 7.37472 24.3604 7.50269 24.2629C7.62152 24.1746 7.78301 24.0405 7.91707 24.1502C8.05114 24.2599 7.97801 24.4153 7.91098 24.5432C7.84395 24.6712 7.53011 25.1648 7.32597 24.9972C7.0944 24.8083 7.56058 24.5402 7.68246 24.4762C7.79824 24.4153 7.91707 24.3604 8.0359 24.3086C8.09989 24.2812 8.1852 24.2385 8.25528 24.2203C8.38325 24.1837 8.36802 24.1654 8.39544 24.2751C8.44419 24.4762 8.27661 24.8235 8.18216 24.9911C8.05723 25.2166 7.87442 25.439 7.65199 25.5761C7.5484 25.6401 7.36558 25.7346 7.31683 25.5579C7.29245 25.4664 7.36558 25.308 7.40214 25.2257C7.49964 25.0033 7.66113 24.8053 7.85918 24.6621C8.21872 24.397 9.01701 24.1593 9.25162 24.7108C9.38264 25.0155 9.0749 25.3324 8.88295 25.5426C8.69099 25.7529 8.45638 25.9601 8.16997 26.0149C7.58496 26.1337 7.22847 25.5152 6.99386 25.0856L6.61604 25.305C7.17363 26.3135 8.32536 27.3433 9.5228 27.4287C10.1078 27.4683 10.6227 27.1788 10.9305 26.6852C11.1681 26.3044 11.29 25.8443 11.3601 25.4055C11.4271 24.9942 11.5368 24.4122 11.3327 24.0222C11.1285 23.6322 10.5618 23.6627 10.1687 23.6627C9.6721 23.6627 9.16936 23.7297 8.71841 23.943C7.99934 24.2842 7.44175 25.0521 7.65808 25.8686C7.87442 26.6852 8.71841 27.0508 9.48014 26.6822C10.3059 26.2861 10.9884 25.3202 11.2992 24.4823C11.4302 24.1319 11.5429 23.4463 11.095 23.2574C10.6928 23.0899 10.2023 23.5743 9.99507 23.8699C9.44053 24.6712 9.72085 25.759 10.5374 26.2556C10.6898 26.3501 10.9274 26.1916 10.8573 26.0088C10.5344 25.1404 10.1169 24.3178 9.59897 23.5499L9.25467 23.815C9.8153 24.3939 9.85187 25.372 9.31561 25.9783L9.65991 26.2434C10.3211 25.2654 11.4606 24.6103 11.5734 23.3336C11.5947 23.0959 11.2809 23.0685 11.1651 23.2239C10.7507 23.7906 10.772 24.4975 10.7934 25.1679C10.8147 25.8382 10.7964 26.6944 10.0743 26.999L10.3729 27.2976C10.8726 26.2404 11.3692 25.1831 11.8689 24.1228C11.9664 23.9186 11.6892 23.6474 11.5246 23.8577C11.1559 24.333 11.1133 24.8906 11.1102 25.4725C11.1102 26.0118 11.092 26.9777 10.3698 27.0752L10.5588 27.4043C10.9914 26.7644 11.5033 26.1886 12.0822 25.6767L11.7379 25.4116C11.2687 26.021 10.702 26.5694 10.0591 26.993C9.73608 27.2062 9.41311 27.322 9.05357 27.1209C8.74888 26.9503 8.51732 26.6578 8.30708 26.3897C8.15778 26.1947 7.81652 26.4537 7.96278 26.6547C8.36192 27.2001 9.04748 27.383 9.666 27.1118C9.79702 27.0539 9.80007 26.8589 9.71171 26.7675C9.3217 26.3866 8.5356 26.6334 8.5356 27.2184C8.5356 27.5262 8.81287 27.709 9.09318 27.5719C9.39178 27.4256 9.49233 27.0448 9.49233 26.7401C9.49233 26.475 9.47405 26.0393 9.25467 25.8565C8.96217 25.6127 8.63005 25.9418 8.432 26.149C7.90489 26.7035 7.61848 27.4439 7.61238 28.2087C7.61238 28.4616 7.96582 28.4981 8.042 28.2666C8.20044 27.7791 7.91707 27.3464 7.62152 26.9777C7.27113 26.5451 6.87807 26.149 6.45151 25.7925C6.27174 25.6432 5.97009 25.8321 6.1072 26.0575C6.39971 26.5268 6.74096 26.9655 7.13706 27.3555C7.46308 27.6785 7.97192 28.23 8.46857 28.2209C8.89818 28.2117 9.08709 27.7912 8.98654 27.4134C8.84334 26.8833 8.30098 26.7858 7.93231 26.4597C7.75863 26.3074 7.43566 26.5115 7.58801 26.7248C7.92926 27.1941 8.32841 27.6023 8.79763 27.9497C9.03225 28.1234 9.28209 28.2788 9.54413 28.4098C9.74827 28.5134 10.0042 28.6474 10.2145 28.4768C10.5862 28.1721 10.1748 27.5962 9.90976 27.3891C9.44053 27.0234 8.80068 26.8345 8.22481 26.7187C8.02372 26.6791 7.84395 26.9259 8.01153 27.0844C8.51122 27.5505 9.29428 27.5993 9.86405 27.2276C10.4978 26.8132 10.7812 26.0058 10.6867 25.2745C10.5953 24.5859 10.0134 23.8668 9.24553 24.1075C8.71232 24.2721 8.41677 25.1739 9.00482 25.4756C9.36741 25.6615 9.65686 25.0795 9.77874 24.8266C9.98288 24.4061 10.0682 23.946 10.0377 23.4799C10.0286 23.3427 9.90671 23.227 9.76046 23.2696C9.26686 23.4098 8.83724 23.687 8.51732 24.0892C8.42591 24.205 8.43505 24.4214 8.61482 24.4549C8.9317 24.5128 9.25467 24.4549 9.50147 24.2385C9.70257 24.0649 9.85796 23.7449 9.59593 23.5469C9.36131 23.3671 9.02615 23.4951 8.78544 23.5895C8.46857 23.7145 8.16997 23.876 7.90184 24.0862C7.39605 24.4792 7.003 25.0368 6.92987 25.6858C6.89331 26.024 7.0487 26.2099 7.38386 26.2526C7.84395 26.3104 8.31013 26.3561 8.77326 26.4049C9.05357 26.4354 9.05053 25.9997 8.77326 25.9692L8.7824 25.9722Z" fill="#5F97A0"/>
<path d="M10.51 23.5195C10.2723 23.3153 9.98898 23.2849 9.68429 23.294C9.37959 23.3031 9.0749 23.3123 8.77326 23.3488C8.16387 23.4189 7.59105 23.5804 7.10355 23.9582L7.44785 24.2233C7.75863 23.6901 8.35583 23.4067 8.96521 23.4799C9.24553 23.5134 9.23944 23.0807 8.96521 23.0442C8.26442 22.9497 7.4905 22.8766 6.87807 23.3062C6.32658 23.6931 6.10111 24.4579 6.11634 25.1069C6.13158 25.7559 6.52158 26.3958 7.20105 26.4323C7.83785 26.4658 8.20044 25.8656 8.42591 25.3598C8.53864 25.1069 8.16387 24.8845 8.04809 25.1404C7.89575 25.4756 7.65504 26.0423 7.20105 25.9966C6.64041 25.9418 6.5094 25.2714 6.56729 24.8205C6.63127 24.3086 6.81409 23.7998 7.30464 23.5652C7.7952 23.3306 8.42286 23.4128 8.96826 23.4829V23.0472C8.21262 22.9558 7.45394 23.3519 7.07308 24.007C6.93901 24.2385 7.23152 24.4153 7.41738 24.2721C7.80434 23.9704 8.29794 23.8455 8.77935 23.7906C9.02006 23.7632 9.26076 23.751 9.50452 23.7419C9.72085 23.7358 10.0316 23.681 10.2084 23.8363C10.4216 24.0192 10.7324 23.7114 10.5161 23.5286L10.51 23.5195Z" fill="#5F97A0"/>
<path d="M8.56607 25.5822L8.57825 25.9722C8.5813 26.0789 8.65747 26.1703 8.76412 26.1825C8.8799 26.1977 8.95912 26.1276 9.00178 26.0271C9.16631 25.634 9.23639 25.1983 9.21201 24.7748C9.19678 24.531 8.86467 24.4823 8.78849 24.7169C8.73365 24.8814 8.68794 25.0521 8.64833 25.2196C8.60872 25.3872 8.56302 25.5761 8.55997 25.7559C8.55693 25.9357 8.62701 26.1307 8.79154 26.2282C8.94693 26.3196 9.16326 26.3165 9.28819 26.1733C9.36131 26.088 9.37959 25.9509 9.28819 25.8686C9.20592 25.7955 9.06272 25.7772 8.9835 25.8686C8.96521 25.89 8.9835 25.8717 8.99568 25.8656C8.96217 25.8869 9.02615 25.8565 9.00178 25.8656C8.97435 25.8747 9.04443 25.8626 9.01701 25.8656C8.98959 25.8686 9.05967 25.8747 9.0292 25.8656C9.0231 25.8656 9.02006 25.8656 9.01396 25.8625C8.99873 25.8565 9.00482 25.8625 9.0292 25.8717C9.0231 25.8717 9.00787 25.8595 9.00178 25.8565C9.01396 25.8595 9.03225 25.8778 9.00787 25.8595C8.98654 25.8443 9.00787 25.8534 9.01092 25.8686C9.01092 25.8626 8.98959 25.8199 8.99568 25.8443C9.00178 25.8656 8.99264 25.826 8.98959 25.8229C8.98959 25.8168 8.98349 25.7803 8.98654 25.8016C8.98959 25.8229 8.98654 25.7833 8.98654 25.7803C8.98654 25.7498 8.98654 25.7193 8.98959 25.6858C8.98959 25.6706 8.99264 25.6584 8.98959 25.6797C8.98959 25.6615 8.99568 25.6462 8.99873 25.6279C9.04443 25.3598 9.11451 25.0917 9.19678 24.8327L8.77326 24.7748C8.77935 24.8723 8.77935 24.9698 8.77326 25.0704C8.77326 25.1221 8.76716 25.177 8.76107 25.2288C8.76107 25.2288 8.75193 25.2989 8.75802 25.2623C8.75498 25.2897 8.74888 25.3141 8.74584 25.3415C8.71232 25.5396 8.65443 25.7315 8.57825 25.9143L9.00178 25.9722L8.98959 25.5822C8.98654 25.4695 8.89209 25.3629 8.77326 25.3659C8.65443 25.3689 8.55388 25.4604 8.55693 25.5822H8.56607Z" fill="#5F97A0"/>
<path d="M11.5764 24.7748C11.6983 25.375 11.7867 26.0058 11.351 26.4994C10.9975 26.8985 10.5009 27.1362 10.0255 27.3555L10.2449 27.7334C10.772 27.4439 11.3174 27.1392 11.7227 26.6822C12.1279 26.2251 12.3686 25.6736 12.2924 25.0856C12.2803 25.0003 12.2346 24.8906 12.131 24.8753C11.8476 24.8327 11.6953 25.049 11.6617 25.308C11.6221 25.6066 11.6221 25.9052 11.5917 26.2038C11.5429 26.6304 11.357 27.1483 10.8726 27.2245L11.1499 27.4348C11.1529 27.3799 11.159 27.3281 11.162 27.2733C11.1834 26.993 10.7477 26.993 10.7263 27.2733C10.7233 27.3281 10.7172 27.3799 10.7141 27.4348C10.702 27.5902 10.8634 27.6663 10.9914 27.645C11.4515 27.5719 11.7684 27.1727 11.9177 26.7553C12.0091 26.5024 12.0304 26.2282 12.0487 25.9661C12.0578 25.826 12.0639 25.6858 12.0761 25.5426C12.0822 25.4786 12.0853 25.4086 12.0974 25.3446C12.1005 25.3263 12.1127 25.305 12.1127 25.2897C12.1127 25.2623 12.1431 25.2867 12.1035 25.2897H11.9878L12.0182 25.2958L11.8567 25.0856C12.003 26.2251 10.8756 26.8863 10.0255 27.3555C9.77569 27.4927 9.99507 27.8491 10.2449 27.7334C10.7873 27.4805 11.357 27.1971 11.7349 26.7187C11.9421 26.4537 12.07 26.1551 12.1096 25.8199C12.1553 25.4329 12.0761 25.0399 11.9999 24.659C11.9451 24.3848 11.5216 24.5006 11.5795 24.7748H11.5764Z" fill="#5F97A0"/>
<path d="M11.3327 24.2599C10.9061 23.6992 10.3272 23.2849 9.65382 23.0716C9.54108 23.035 9.41616 23.1142 9.38569 23.2239C9.35217 23.3428 9.4253 23.4555 9.53803 23.492C10.0895 23.6657 10.6075 24.0253 10.9579 24.4823C11.028 24.5768 11.1468 24.6255 11.2565 24.5615C11.3479 24.5067 11.4058 24.3574 11.3357 24.2629L11.3327 24.2599Z" fill="#5F97A0"/>
</svg>
