<svg width="32" height="32" viewBox="0 0 32 32" fill="none" xmlns="http://www.w3.org/2000/svg">
<path d="M21.3004 21.0573C21.3541 23.3996 21.4052 25.742 21.4537 28.0843L21.7474 27.7905C16.8534 28.235 11.9465 28.5313 7.032 28.6692C5.67566 28.7075 4.32187 28.7331 2.96553 28.7484L3.25927 29.0421C3.27205 22.3217 3.28737 15.5988 3.30014 8.87834C3.30525 6.96515 3.30781 5.04941 3.31291 3.13623L3.01917 3.42997C7.77276 3.2103 12.534 3.19753 17.2876 3.39677C18.5699 3.45041 19.8521 3.51938 21.1318 3.60367L20.8381 3.30992C20.9352 6.69439 21.0271 10.0789 21.114 13.4633C21.1242 13.8388 21.7091 13.8414 21.6989 13.4633C21.6121 10.0789 21.5201 6.69439 21.423 3.30992C21.4179 3.14389 21.2928 3.02639 21.1293 3.01617C16.4319 2.7071 11.7192 2.60237 7.01157 2.70455C5.67821 2.73264 4.34741 2.77862 3.01406 2.83993C2.85569 2.84759 2.72031 2.96764 2.72031 3.13367C2.70754 9.85409 2.69221 16.5771 2.67944 23.2975C2.67433 25.2107 2.67178 27.1264 2.66667 29.0396C2.66667 29.1954 2.80205 29.3333 2.96042 29.3333C7.84939 29.2797 12.7358 29.0753 17.6094 28.7177C18.9888 28.6156 20.3656 28.5032 21.7423 28.378C21.8981 28.3627 22.0386 28.2554 22.0361 28.0843C21.9875 25.742 21.9365 23.3996 21.8828 21.0573C21.8752 20.6818 21.2877 20.6793 21.2979 21.0573H21.3004Z" fill="#5F97A0"/>
<path d="M6.8532 26.9553C8.3628 26.5977 9.42029 25.438 9.88263 23.9871H9.31812C9.39475 24.309 9.44839 24.6436 9.54545 24.9603C9.60676 25.157 9.70638 25.2771 9.90561 25.346C10.0027 25.3792 10.1202 25.3409 10.1917 25.272C10.5263 24.945 10.8098 24.5797 11.0372 24.1736L10.5008 23.9488C10.3858 24.2605 10.3322 24.5797 10.3373 24.9118C10.3424 25.134 10.5825 25.2745 10.7792 25.1647C11.0142 25.0319 11.2236 24.8735 11.4101 24.6819L10.9503 24.3269C10.7383 24.6972 10.7409 25.2464 11.2722 25.323C11.7345 25.3895 12.0768 24.8709 12.2019 24.4955C12.3067 24.1864 11.8009 23.9642 11.6655 24.2707C11.3028 25.1034 11.124 26.1839 12.0691 26.71C13.0142 27.2362 14.1764 26.7484 15.1062 26.5159C15.4715 26.424 15.3157 25.8595 14.9504 25.9514C14.248 26.1277 13.4025 26.4623 12.6719 26.3116C11.76 26.1251 11.8801 25.2311 12.1713 24.567L11.6349 24.3422C11.5991 24.4469 11.5557 24.521 11.4893 24.6104C11.4561 24.6538 11.3514 24.8071 11.4535 24.6257C11.617 24.3396 11.2288 24.028 10.9938 24.2707C10.8405 24.429 10.6745 24.5516 10.4803 24.6615L10.9222 24.9144C10.9171 24.6283 10.9631 24.3754 11.0627 24.1072C11.1802 23.793 10.6872 23.5963 10.5263 23.8824C10.322 24.2502 10.0716 24.5695 9.77279 24.8633L10.0589 24.7892C10.1508 24.8198 10.0895 24.7688 10.0819 24.6921C10.0691 24.59 10.0333 24.4878 10.0103 24.3882C9.96692 24.2068 9.92349 24.0229 9.88263 23.8415C9.81366 23.5478 9.40241 23.5784 9.31812 23.8415C8.91709 25.1008 8.0052 26.0893 6.69739 26.3984C6.32957 26.4853 6.48538 27.0498 6.8532 26.9629V26.9553Z" fill="#5F97A0"/>
<path d="M6.39342 7.79786C6.52369 7.6446 6.70761 7.39939 6.93239 7.38917C7.10608 7.38151 7.30021 7.51433 7.4739 7.54498C7.93879 7.62928 8.41134 7.44792 8.88644 7.48368C9.36154 7.51944 9.77534 7.64716 10.2224 7.71357C11.3769 7.88215 12.5723 7.84384 13.732 7.83618C15.0679 7.82596 16.4038 7.79275 17.7372 7.74933C18.1126 7.73656 18.1152 7.15162 17.7372 7.16439C15.6988 7.22825 13.6554 7.29977 11.617 7.23336C11.3616 7.22569 11.1036 7.21292 10.8482 7.19504C10.746 7.18738 10.6464 7.17972 10.5467 7.1695C10.4727 7.16184 10.3501 7.14651 10.3552 7.14651C9.86219 7.07243 9.38709 6.93705 8.88644 6.90129C8.61568 6.88086 8.34237 6.88597 8.07417 6.93705C7.75488 6.9958 7.54542 6.96004 7.24146 6.86298C6.72549 6.69439 6.30402 7.00347 5.98218 7.38662C5.73952 7.6727 6.15332 8.08905 6.39598 7.80041L6.39342 7.79786Z" fill="#5F97A0"/>
<path d="M6.61054 9.75958C7.52754 9.61143 8.45731 9.58333 9.38709 9.568C10.3169 9.55268 11.2441 9.5348 12.1739 9.55012C13.1036 9.56545 13.9849 9.62675 14.8891 9.71105C15.7933 9.79534 16.7308 9.86686 17.6529 9.75702C18.0232 9.7136 18.0258 9.12611 17.6529 9.17208C16.7103 9.28447 15.7678 9.20785 14.8278 9.121C13.8878 9.03415 12.9785 8.9754 12.0487 8.96518C10.1968 8.9422 8.28617 8.90388 6.45473 9.19763C6.08435 9.25638 6.24016 9.82088 6.61054 9.76213V9.75958Z" fill="#5F97A0"/>
<path d="M12.3705 11.7009C13.3744 11.5961 14.3425 11.5297 15.3489 11.6421C16.3553 11.7545 17.3029 11.8899 18.2838 11.6958C18.6542 11.6217 18.4958 11.0572 18.128 11.1312C17.1675 11.3228 16.1969 11.1466 15.2365 11.0444C14.2761 10.9422 13.331 11.0137 12.368 11.1159C11.9976 11.1542 11.9925 11.7417 12.368 11.7009H12.3705Z" fill="#5F97A0"/>
<path d="M6.62076 12.0738C7.59651 11.7724 8.61313 11.7647 9.62464 11.7852C10.0027 11.7928 10.0027 11.2079 9.62464 11.2002C8.56204 11.1798 7.48923 11.1951 6.46495 11.5118C6.10479 11.6217 6.25805 12.1887 6.62076 12.0763V12.0738Z" fill="#5F97A0"/>
<path d="M15.5251 13.9487C16.368 13.9691 17.2084 14.0381 18.036 14.1964C18.3247 14.2526 18.5188 13.9333 18.3221 13.706C18.2863 13.6626 18.248 13.6217 18.2123 13.5783C18.1075 13.4582 17.9057 13.471 17.7985 13.5783C17.681 13.6958 17.6937 13.872 17.7985 13.9921C17.8342 14.0355 17.8725 14.0764 17.9083 14.1198L18.1944 13.6294C17.3157 13.4608 16.4217 13.3842 15.5277 13.3612C15.1496 13.351 15.1496 13.9384 15.5277 13.9461L15.5251 13.9487Z" fill="#5F97A0"/>
<path d="M6.66418 14.1658C7.69357 13.9946 8.73829 14.1019 9.77534 14.107C10.8124 14.1121 11.8827 14.0508 12.935 14.0023C13.3105 13.9844 13.3131 13.3995 12.935 13.4174C11.8418 13.4685 10.746 13.5323 9.65274 13.5221C8.55949 13.5119 7.55564 13.4301 6.51092 13.6038C6.14055 13.6651 6.29636 14.2296 6.66674 14.1683L6.66418 14.1658Z" fill="#5F97A0"/>
<path d="M6.68462 16.7354C10.5263 16.6716 14.368 16.6077 18.2097 16.5439C18.5852 16.5387 18.5877 15.9512 18.2097 15.9589C14.368 16.0228 10.5263 16.0866 6.68462 16.1505C6.30913 16.1556 6.30658 16.7431 6.68462 16.7354Z" fill="#5F97A0"/>
<path d="M6.93238 19.0267C9.66806 18.5234 12.4446 18.2936 15.2263 18.3395C15.6043 18.3446 15.6043 17.7597 15.2263 17.7546C12.3935 17.7061 9.56333 17.9487 6.77657 18.4621C6.40619 18.5311 6.56201 19.0956 6.93238 19.0267Z" fill="#5F97A0"/>
<path d="M6.99113 20.5465C9.18785 21.0165 11.4254 20.7968 13.6502 20.7942C14.0283 20.7942 14.0283 20.2067 13.6502 20.2093C11.4816 20.2119 9.28747 20.4392 7.14695 19.982C6.77913 19.9028 6.62331 20.4673 6.99113 20.5465Z" fill="#5F97A0"/>
<path d="M24.2456 15.9078C23.0272 17.0445 21.727 18.102 20.4703 19.1978C19.2136 20.2936 17.8674 21.3562 16.4549 22.2757C15.7627 22.7279 15.0526 23.1749 14.3042 23.5223C14.2505 23.5478 14.0589 23.5912 14.013 23.6372L13.9568 23.6525C13.9721 23.7802 13.99 23.793 14.013 23.6959C14.0692 23.65 14.1202 23.489 14.156 23.4277C14.202 23.3486 14.2556 23.2719 14.3067 23.1953C14.5519 22.8275 14.8355 22.4826 15.119 22.148C16.2122 20.8607 17.3463 19.6244 18.5877 18.4775C19.9747 17.1952 21.4333 16.01 22.8969 14.8197H22.501C22.6185 14.9372 22.7794 14.9193 22.8994 14.8222C22.9939 14.7456 23.0859 14.669 23.1779 14.5872C23.4512 14.3446 23.0501 13.9461 22.7794 14.1888C22.6874 14.2705 22.5955 14.3471 22.501 14.4238H22.8969C22.7794 14.3063 22.6185 14.3241 22.4984 14.4212C19.6478 16.7405 16.8457 19.1007 14.534 21.9794C14.2531 22.3294 13.9644 22.6717 13.7269 23.0523C13.5685 23.3077 13.2799 23.7368 13.4868 24.0408C13.6783 24.3218 14.0538 24.2298 14.322 24.1302C14.7563 23.9667 15.1726 23.7292 15.5685 23.489C17.1318 22.5439 18.6133 21.5094 20.0028 20.3242C21.5584 18.9986 23.1523 17.7035 24.6466 16.3089C24.9122 16.0611 24.5138 15.6626 24.2481 15.9104L24.2456 15.9078Z" fill="#5F97A0"/>
<path d="M23.8701 13.7596C25.3133 12.4212 26.9199 11.2283 28.6135 10.2219C28.994 9.99458 29.5075 9.69572 29.9596 9.67529C30.1026 9.66762 30.0388 9.65741 30.0234 9.74936C30.0081 9.86175 29.9443 9.97159 29.8932 10.0712C29.7808 10.2934 29.6428 10.508 29.5024 10.7123C28.9379 11.5272 28.238 12.2526 27.5432 12.955C26.759 13.7494 25.9365 14.4953 25.1013 15.236C24.8177 15.4864 25.2341 15.9002 25.5151 15.6498C26.381 14.8835 27.2239 14.107 28.0413 13.2896C28.8587 12.4723 29.6428 11.6344 30.2252 10.6689C30.4347 10.3215 30.7667 9.79278 30.5598 9.37388C30.3529 8.95497 29.7731 9.08013 29.4308 9.19252C28.8944 9.36877 28.404 9.66251 27.9212 9.9486C27.4385 10.2347 26.9378 10.5667 26.4678 10.9039C25.4231 11.6574 24.3988 12.4646 23.4563 13.3382C23.1804 13.5962 23.5942 14.0074 23.8701 13.752V13.7596Z" fill="#5F97A0"/>
<path d="M28.7284 12.4365C29.0196 12.8248 28.6645 13.2386 28.4347 13.5655C28.1256 14.0049 27.722 14.4289 27.3312 14.7941C26.3989 15.6703 25.4538 16.5336 24.5214 17.4123H24.9889C24.7181 17.1748 24.335 17.1058 24.0463 17.374C23.7832 17.6192 23.7475 18.0586 24.0208 18.314V17.8466L24.0157 17.8517C23.8803 17.9794 23.9007 18.1888 24.0157 18.3191C24.2839 18.6231 24.7232 18.5311 25.0093 18.3089C25.3976 18.0075 25.7679 17.6652 26.1281 17.3331C26.8024 16.7099 27.4921 16.1045 28.1435 15.4557C28.7948 14.8069 29.4385 14.176 29.8932 13.3969C30.0745 13.0853 30.2278 12.6945 30.1282 12.3318C30.003 11.8797 29.6633 11.6804 29.2035 11.7392C28.7871 11.7928 28.782 12.4544 29.2035 12.4007C29.3542 12.3803 29.4487 12.3343 29.4794 12.4723C29.51 12.6102 29.4819 12.7226 29.4283 12.8554C29.321 13.1134 29.1422 13.3739 28.9685 13.5911C28.5087 14.1607 27.9953 14.6843 27.4742 15.1952C26.9838 15.6779 26.478 16.1607 25.9544 16.6077C25.6785 16.8427 25.4052 17.0854 25.137 17.3306C25.0016 17.4532 24.8714 17.5784 24.7309 17.6933C24.6721 17.7418 24.6108 17.7878 24.5495 17.8338C24.501 17.8721 24.4627 17.8338 24.4831 17.8542V18.3217L24.4882 18.3166C24.6159 18.1965 24.6159 17.9692 24.4882 17.8491C24.4984 17.8619 24.5087 17.8721 24.5214 17.8823C24.6594 18.0024 24.8509 18.0126 24.9889 17.8823C26.0464 16.8861 27.1779 15.9615 28.1613 14.8912C28.759 14.2424 30.0158 13.0598 29.298 12.107C29.0451 11.7724 28.4704 12.0993 28.7284 12.4416V12.4365Z" fill="#5F97A0"/>
<path d="M22.9301 13.3918C22.7513 13.5553 22.6287 13.7903 22.6849 14.0381C22.7257 14.2194 22.8867 14.3574 23.0016 14.4953C23.1063 14.6179 23.2111 14.7405 23.3183 14.8631C23.3694 14.9193 23.418 14.9781 23.4716 15.0342C23.492 15.0547 23.5099 15.0751 23.5304 15.0956C23.5508 15.116 23.5687 15.139 23.5866 15.1594C23.5712 15.1415 23.5738 15.1441 23.5917 15.1671C23.796 15.4276 24.031 15.6626 24.2456 15.9155C24.3145 15.9972 24.3528 16.0432 24.3937 16.0917C24.4627 16.1811 24.5342 16.2501 24.644 16.291C24.902 16.3855 25.1472 16.2756 25.3465 16.1122H24.9327L24.9378 16.1173C25.0451 16.2399 25.2443 16.2195 25.3516 16.1173C25.5253 15.9538 25.6479 15.706 25.5917 15.4634C25.5789 15.4046 25.5508 15.3484 25.5176 15.2999C25.51 15.2871 25.4282 15.1901 25.4538 15.2207C25.395 15.1492 25.3414 15.0751 25.2775 15.0062C25.1677 14.8861 25.0706 14.7558 24.9557 14.6434C24.902 14.5898 24.8509 14.5336 24.7999 14.4749C24.7718 14.4416 24.7437 14.411 24.7181 14.3778C24.7028 14.3599 24.6849 14.3395 24.6696 14.319C24.6926 14.3471 24.69 14.3446 24.6619 14.3088C24.4652 14.0534 24.2379 13.8184 24.0284 13.5757C23.9058 13.4352 23.7909 13.2564 23.6019 13.2028C23.3567 13.1338 23.1166 13.2411 22.9301 13.3944C22.8381 13.4685 22.8126 13.6549 22.8841 13.7494C22.9786 13.8797 23.137 13.9436 23.2851 13.8567C23.4103 13.7826 23.4844 13.5834 23.3899 13.4557C23.3745 13.5706 23.3592 13.6907 23.3439 13.8082C23.3771 13.7801 23.4077 13.775 23.4486 13.7673C23.418 13.7724 23.3771 13.7034 23.4307 13.7801C23.4461 13.8031 23.4691 13.8235 23.4869 13.8439C23.5687 13.9384 23.6504 14.0355 23.7321 14.13C23.8139 14.2245 23.8982 14.3165 23.9774 14.411C24.0182 14.457 24.0565 14.503 24.0974 14.5489C24.123 14.577 24.1459 14.6026 24.1689 14.6307C24.1817 14.6434 24.1919 14.6588 24.2047 14.6715C24.1817 14.6434 24.1843 14.646 24.2124 14.6818C24.3682 14.8861 24.5521 15.0649 24.7181 15.2616C24.759 15.3101 24.7999 15.3561 24.8407 15.3995C24.8637 15.4251 24.8867 15.4506 24.9097 15.4761C24.9991 15.5758 24.8893 15.448 24.9429 15.517C24.9506 15.5272 25.0221 15.6243 25.0246 15.6243C25.0297 15.6217 25.0042 15.5732 25.017 15.5809C25.0425 15.5936 24.9403 15.6984 24.9327 15.7086H25.3465L25.3414 15.7035C25.229 15.5758 25.0425 15.609 24.9276 15.7035C24.8969 15.7265 24.8458 15.7418 24.8279 15.7444L24.8688 15.7622C24.8509 15.7444 24.8356 15.7239 24.8203 15.7035C24.8612 15.752 24.7999 15.6754 24.7794 15.6524C24.6977 15.5502 24.6083 15.4506 24.5214 15.351C24.4422 15.259 24.358 15.1722 24.2762 15.0828C24.1945 14.9934 24.1102 14.8989 24.0617 14.835C23.9033 14.623 23.7117 14.434 23.538 14.2347C23.4563 14.1402 23.3745 14.0457 23.2954 13.9487C23.2902 13.9436 23.2443 13.8823 23.2417 13.8848C23.2417 13.8848 23.2494 13.9308 23.2468 13.9282C23.2213 13.9129 23.3235 13.8209 23.3362 13.8082C23.4537 13.7009 23.4435 13.5017 23.3362 13.3944C23.2187 13.2769 23.0399 13.2871 22.9224 13.3944L22.9301 13.3918Z" fill="#5F97A0"/>
<path d="M22.6287 15.2054C21.1778 16.3421 19.727 17.4787 18.3885 18.7457C17.7372 19.3638 17.142 20.0356 16.5034 20.664C15.898 21.2591 15.2263 21.7419 14.4702 22.1276C14.11 22.3115 14.0053 22.8198 14.202 23.1544C14.4165 23.5223 14.8661 23.6091 15.2288 23.4226C16.0411 23.0114 16.787 22.475 17.4434 21.8466C18.0999 21.2183 18.7052 20.5209 19.3668 19.8875C20.7283 18.5873 22.2123 17.4251 23.6938 16.2654C24.0131 16.0151 23.9569 15.4659 23.6938 15.2028C23.3797 14.8887 22.9531 14.9525 22.6312 15.2028L22.6287 15.2054Z" fill="#5F97A0"/>
<path d="M22.2634 15.7954C21.6095 16.2756 20.953 16.7559 20.2991 17.2361C19.9722 17.4762 19.6427 17.7214 19.3745 18.0279C19.1063 18.3344 18.8713 18.6869 18.6465 19.0343C18.4217 19.3817 18.5673 19.8772 18.9147 20.0612C19.2876 20.2578 19.7142 20.1454 19.9415 19.7929C20.036 19.6448 20.1306 19.4992 20.2327 19.3536C20.2736 19.2923 20.317 19.2157 20.3707 19.1646C20.2557 19.2719 20.3528 19.1901 20.3809 19.1569C20.4064 19.1263 20.432 19.0982 20.4575 19.0675C20.575 18.9347 20.7027 18.8146 20.8381 18.7023C20.8688 18.6767 20.8994 18.6537 20.9301 18.6282C20.999 18.5694 20.8279 18.7048 20.9403 18.6205C21.0118 18.5669 21.0833 18.5132 21.1548 18.4621C21.7781 18.0049 22.3988 17.5503 23.022 17.093C23.1855 16.973 23.3107 16.8453 23.3669 16.6435C23.4154 16.4647 23.395 16.2246 23.2902 16.0662C23.0885 15.7546 22.6006 15.5477 22.2634 15.798V15.7954Z" fill="#5F97A0"/>
<path d="M25.3541 14.2194C26.2916 14.0738 27.063 13.5298 27.6479 12.8069C27.7092 12.7303 27.7705 12.6562 27.8395 12.5847C27.8778 12.5463 27.9187 12.5106 27.957 12.4723C28.0157 12.4186 27.8701 12.5208 27.9876 12.4569C28.1767 12.3522 28.3733 12.2551 28.5624 12.1479C28.9813 11.9078 29.3082 11.5604 29.6173 11.1951C29.8727 10.8963 29.9315 10.4237 29.6173 10.1325C29.3363 9.87452 28.828 9.81322 28.5547 10.1325C28.4219 10.2909 28.2865 10.4467 28.1383 10.5923C28.1 10.6306 28.0592 10.6664 28.0208 10.7021C27.9723 10.7481 27.9647 10.7507 28.0208 10.7072C27.9417 10.766 27.8599 10.8171 27.7731 10.8656C27.3695 11.0904 26.9736 11.282 26.6645 11.6421C26.5368 11.7903 26.4244 11.9486 26.289 12.0891C26.2252 12.1581 26.1562 12.2245 26.0847 12.2858C26.0847 12.2858 25.934 12.4007 26.0132 12.3445C26.0923 12.2884 25.9518 12.3854 25.9365 12.3956C25.8573 12.4467 25.7756 12.4953 25.6939 12.5387C25.6479 12.5642 25.5994 12.5847 25.5534 12.6076C25.4844 12.6409 25.4946 12.6255 25.5585 12.6076C25.3567 12.6715 25.1626 12.7328 24.9506 12.766C24.5623 12.8273 24.312 13.3331 24.4269 13.6907C24.5649 14.1147 24.9327 14.2807 25.3516 14.2143L25.3541 14.2194Z" fill="#5F97A0"/>
<path d="M26.9659 10.8273C26.547 11.3203 26.054 11.7392 25.5738 12.1709C25.0604 12.6357 24.5751 13.1287 24.1996 13.7137C24.0361 13.9665 24.0821 14.319 24.2583 14.5464C24.4346 14.7737 24.7641 14.9142 25.0476 14.8146C26.0821 14.457 26.874 13.7188 27.6249 12.9525C27.9008 12.6715 27.9263 12.1657 27.6249 11.8899C27.3235 11.614 26.8561 11.591 26.5623 11.8899C26.2405 12.2168 25.9186 12.5463 25.561 12.835C25.5432 12.8503 25.5253 12.8631 25.5074 12.8784C25.4461 12.9269 25.4614 12.9167 25.5534 12.8426C25.5023 12.8707 25.4563 12.9142 25.4103 12.9474C25.3184 13.0112 25.2264 13.0725 25.1319 13.1287C25.0374 13.1849 24.9403 13.2386 24.8382 13.2871C24.8126 13.2999 24.7845 13.3126 24.7564 13.3254C24.6824 13.3586 24.7028 13.351 24.8126 13.3024C24.759 13.3101 24.6977 13.3458 24.644 13.3637L25.4921 14.4672C25.5355 14.4008 25.5789 14.3344 25.6275 14.268C25.6479 14.2399 25.676 14.2118 25.6913 14.1811C25.6096 14.3395 25.6351 14.2526 25.6811 14.1964C25.7782 14.0789 25.8778 13.964 25.9825 13.8542C26.1996 13.6268 26.4295 13.4123 26.662 13.2002C27.1294 12.7788 27.6122 12.3675 28.0208 11.8848C28.1511 11.729 28.2405 11.5629 28.2405 11.3535C28.2405 11.1696 28.1588 10.9499 28.0208 10.8222C27.7424 10.5667 27.2316 10.5029 26.9582 10.8222L26.9659 10.8273Z" fill="#5F97A0"/>
</svg>
